<svg xmlns="http://www.w3.org/2000/svg" xmlns:xlink="http://www.w3.org/1999/xlink" viewBox="0 0 750 500"><defs><style>.cls-1{opacity:0.14;fill:url(#radial-gradient);}.cls-2{fill:url(#linear-gradient);}.cls-3{opacity:0.56;}.cls-4{fill:url(#linear-gradient-2);}.cls-5{fill:#ff2e2e;}.cls-6{fill:#0b0042;}.cls-7{fill:#ffc3c5;}.cls-8{fill:#ff9798;}.cls-9{fill:#ffc7c9;}.cls-10,.cls-19,.cls-37{fill:#fff;}.cls-11{fill:#e80c0c;}.cls-12{opacity:0.17;fill:url(#linear-gradient-3);}.cls-13{fill:url(#linear-gradient-4);}.cls-14{opacity:0.26;fill:url(#linear-gradient-5);}.cls-15{fill:url(#linear-gradient-6);}.cls-16{opacity:0.43;fill:url(#linear-gradient-7);}.cls-17,.cls-24,.cls-25,.cls-26{fill:#238df0;}.cls-17{opacity:0.67;}.cls-18{fill:url(#linear-gradient-8);}.cls-19{opacity:0.33;}.cls-20{fill:url(#linear-gradient-9);}.cls-21{fill:url(#linear-gradient-10);}.cls-22{opacity:0.31;}.cls-23{fill:url(#linear-gradient-11);}.cls-24{opacity:0.45;}.cls-25{opacity:0.25;}.cls-26,.cls-37{opacity:0.48;}.cls-27{opacity:0.4;}.cls-28{fill:none;}.cls-29{fill:#1d1d1b;fill-rule:evenodd;}.cls-30{fill:#f49595;}.cls-31,.cls-32{fill:#ff877d;}.cls-32{opacity:0.18;}.cls-33{fill:#e88585;}.cls-34{fill:url(#linear-gradient-12);}.cls-35{fill:url(#linear-gradient-13);}.cls-36{fill:url(#linear-gradient-14);}</style><radialGradient id="radial-gradient" cx="375" cy="250" r="318.69" gradientUnits="userSpaceOnUse"><stop offset="0" stop-color="#b0daff"/><stop offset="1" stop-color="#1484ef"/></radialGradient><linearGradient id="linear-gradient" x1="525.56" y1="357.14" x2="-588.69" y2="610.15" gradientUnits="userSpaceOnUse"><stop offset="0" stop-color="#1384ef"/><stop offset="0.65" stop-color="#073ba0"/><stop offset="1" stop-color="#001376"/></linearGradient><linearGradient id="linear-gradient-2" x1="294.05" y1="173.71" x2="634.24" y2="337.87" xlink:href="#radial-gradient"/><linearGradient id="linear-gradient-3" x1="590.78" y1="192.09" x2="617.84" y2="227.35" xlink:href="#radial-gradient"/><linearGradient id="linear-gradient-4" x1="672.26" y1="273.08" x2="610.74" y2="226.32" xlink:href="#radial-gradient"/><linearGradient id="linear-gradient-5" x1="564.19" y1="223.5" x2="525.36" y2="188.62" xlink:href="#radial-gradient"/><linearGradient id="linear-gradient-6" x1="526.81" y1="164.24" x2="527.08" y2="193.09" xlink:href="#radial-gradient"/><linearGradient id="linear-gradient-7" x1="488.34" y1="168.81" x2="441.41" y2="225.43" xlink:href="#radial-gradient"/><linearGradient id="linear-gradient-8" x1="642.82" y1="329.28" x2="605.88" y2="389.3" gradientUnits="userSpaceOnUse"><stop offset="0" stop-color="#1384ef"/><stop offset="1" stop-color="#001376"/></linearGradient><linearGradient id="linear-gradient-9" x1="535.24" y1="276.95" x2="498.3" y2="336.97" gradientTransform="matrix(-0.93, -0.37, -0.37, 0.93, 1087.78, 211.05)" xlink:href="#linear-gradient-8"/><linearGradient id="linear-gradient-10" x1="635.24" y1="250.09" x2="580.71" y2="377.2" gradientUnits="userSpaceOnUse"><stop offset="0" stop-color="#b0daff"/><stop offset="1" stop-color="#0e81ee"/></linearGradient><linearGradient id="linear-gradient-11" x1="472.8" y1="250.09" x2="418.27" y2="377.2" gradientTransform="matrix(-1, 0, 0, 1, 909.4, 0)" xlink:href="#linear-gradient-10"/><linearGradient id="linear-gradient-12" x1="542.02" y1="442.94" x2="492.13" y2="408.16" gradientUnits="userSpaceOnUse"><stop offset="0" stop-color="#fff"/><stop offset="1" stop-color="#acccef"/></linearGradient><linearGradient id="linear-gradient-13" x1="361.1" y1="345.74" x2="470.6" y2="345.74" xlink:href="#linear-gradient-12"/><linearGradient id="linear-gradient-14" x1="379.27" y1="420.12" x2="455.32" y2="250.77" xlink:href="#linear-gradient-12"/></defs><title>2824107</title><g id="BACKGROUND"><rect class="cls-1" width="750" height="500"/></g><g id="OBJECTS"><path class="cls-2" d="M503.51,437.49c-23.54-38.36-86.16-23.12-109.82-24s-42.55-16.58-42.55-16.58c-33.49-27.44-67.83-16.85-67.83-16.85-45.85,11.8-36.44,27.95-67.86,32.54s-51.58-22.09-81.25-31.13-51.08,2-51.08,2v54.05Z"/><g class="cls-3"><path class="cls-4" d="M502.49,437.49c-10.8-21.21-39.08-26.7-63.21-25.68s-49.67,5.71-71.47-4.5c-10.54-4.94-19.21-13-29.25-18.84-30.08-17.51-71.41-10.84-97.11,12.66-1.92-27.49,10.67-54.8,31.54-73.22,12.7-11.22,28.24-18.75,42.51-28s27.94-21,33.62-36.77c5.08-14.14,3.19-29.89,7.57-44.24,5.61-18.36,21.36-32.76,39.56-39.7s38.55-7,57.68-3.2c10.07,2,20.58,5.06,30.38,2,10.68-3.31,17.89-13.16,22.31-23.26s9-21.91,13.92-31.79c14-28.25,36.82-42,63.36-45.5C617.68,73,658,90.73,676.57,118.76V437.49Z"/></g><ellipse class="cls-5" cx="501.42" cy="259.52" rx="7.22" ry="11.75"/><path class="cls-6" d="M524.44,287a8.72,8.72,0,0,1-4.76.39,27.1,27.1,0,0,1-11.83-3.77c-3.49-2.29-6.2-6.06-6.39-10.23-.14-2.83.86-5.58,1.51-8.33a35,35,0,0,0,.69-12.28"/><path class="cls-7" d="M540.25,274.35a15.61,15.61,0,0,0,6,20,2,2,0,0,1,1,.95c.2.62-.27,1.25-.73,1.72a17.43,17.43,0,0,1-7.69,4.49c-4.33,1.2-8.93.67-13.37,0-3.44-.52-7.19-1.31-9.35-4a15.79,15.79,0,0,0,3.26-17.18"/><path class="cls-8" d="M541,270.67c-1.78,4.17-1.18,5.12-4.07,8.26-.62.69-2.61,3.08-3.54,4a24,24,0,0,1-4.13,2.56A14.32,14.32,0,0,1,525,287c-1.93.22-2.85.32-4.34-.71,0,0-.2-3.95-1-5.21"/><path class="cls-6" d="M498.79,248.84c1.57,5.56-2.09,11.1-3.26,16.76-1.25,6,.73,12.91,5.65,16.65a17.61,17.61,0,0,1-.54-12.5c1-2.87,2.66-5.48,3.38-8.43.77-3.15.35-6.46-.06-9.68"/><path class="cls-6" d="M519.64,223.1c8.59-5.93,23.87-2.94,30.64,4.62,5.23,5.84,7.53,13.69,11.72,20.32a34.58,34.58,0,0,1,4.52,10.81c1.35,6.94-.07,14.07-6.51,17.74,3.88-6.38,1.54-13.6-3.94-16.32"/><path class="cls-9" d="M511.33,238.5c-3,2.15-6.13,6.3-6.73,9.93s2,7,2.57,10.4c.84,4.91-.25,9.16,1.86,13.67a25.28,25.28,0,0,0,5.3,7.13c1.88,1.59,3.3,3.32,5.72,3.78,1.91.36,3.17-.19,5.05-.67a36,36,0,0,0,14.47-8c4.24-4.2,5.68-6.06,7.07-11.86a38.15,38.15,0,0,0-.37-17.71"/><path class="cls-8" d="M504.94,253.12a28.92,28.92,0,0,1,6.57-9.55,3.59,3.59,0,0,1,1.3-.9c1.82-.59,3.19,1.55,4.36,3.05,3.14,4,11.74,7.65,16.81,7a95.13,95.13,0,0,1,15.27-.77c-3.3-7.79-12.21-18.56-19.63-22.63-3-1.64-6.38-2.9-9.77-2.48-5.11.63-9,4.82-12.13,8.87-1.59,2-3.22,4.43-2.79,7"/><path class="cls-6" d="M514.84,231.35c-.51,6.69-7.06,10.52-8.32,17.11a24.6,24.6,0,0,0,0,6.64,29.39,29.39,0,0,0,2.92,8.31c-3.36-.53-7.53-4.52-8.82-7.68a23.71,23.71,0,0,1-.14-18c2.41-5.69,7.29-15.07,20.17-14.64"/><path class="cls-6" d="M506.18,232.76c6.18,2.76,8.51,10.48,14,14.4a21.9,21.9,0,0,0,10.74,4.33,26.07,26.07,0,0,0,7.19-1c-2.42-2.26-6-5.26-6-8.56A25.5,25.5,0,0,0,549,252l-6.26-16.24a31.31,31.31,0,0,0-1.72-3.94,18.57,18.57,0,0,0-14.08-9.07,25.1,25.1,0,0,0-16.5,4.3c-2.17,1.43-4.24,3.28-5,5.77"/><path class="cls-6" d="M551.08,236.11a34.12,34.12,0,0,0-2.62-4.12,20,20,0,0,0-6.12-5.38,17.68,17.68,0,0,0-12.06-1.83l7.93,17.9c.24.72.5,1.47.77,2.23l-3,.91s5.1,3.55,5.1,14.2c0,8.34-2.47,11.85-3.24,16.26a11.14,11.14,0,0,0-.17,4v0h0c.15,1.34.43,2.75.63,4.43a1.89,1.89,0,0,0,.58,1.35,1.85,1.85,0,0,0,1.41.09,36.75,36.75,0,0,0,10-3.28c3.11-1.67,6.6-4.33,7.94-7.59a21.59,21.59,0,0,0,1.51-6.87C560.25,257.13,556.55,246,551.08,236.11Z"/><path class="cls-8" d="M515.86,256.93a23.65,23.65,0,0,1-1.78,7.38.85.85,0,0,0,0,.68.64.64,0,0,0,.4.29,9,9,0,0,0,3.58.56,29.46,29.46,0,0,0-2.24-8.91"/><path class="cls-6" d="M512.64,250.83a17.44,17.44,0,0,0-6.51.54,8.69,8.69,0,0,0-2.4,1.09,4.71,4.71,0,0,0-1.56,2.12c-.28.67.81,1,1.09.3a3.27,3.27,0,0,1,1.31-1.62,8.15,8.15,0,0,1,2.23-.9,17.13,17.13,0,0,1,5.84-.4c.72.07.72-1.06,0-1.13Z"/><ellipse class="cls-6" cx="510.5" cy="257.35" rx="1.16" ry="1.48"/><ellipse class="cls-6" cx="526.85" cy="255.89" rx="1.16" ry="1.48"/><path class="cls-10" d="M513.13,270.27l13.84-1.6s-3.29,5.68-7.11,6.21C514.68,275.6,513.13,270.27,513.13,270.27Z"/><circle class="cls-8" cx="531.67" cy="263.64" r="3.39"/><ellipse class="cls-8" cx="509.66" cy="266.72" rx="2" ry="3.39" transform="translate(-37.55 89.38) rotate(-9.67)"/><path class="cls-6" d="M522.93,250.63a17.46,17.46,0,0,1,5.75-1.23,8.67,8.67,0,0,1,2.33.25,3.4,3.4,0,0,1,1.83,1.31c.46.57,1.25-.23.8-.79a4.46,4.46,0,0,0-2-1.53,9.06,9.06,0,0,0-2.64-.37,17.82,17.82,0,0,0-6.32,1.28c-.67.26-.37,1.35.3,1.08Z"/><ellipse class="cls-5" cx="545.02" cy="259.52" rx="9.11" ry="11.75"/><path class="cls-5" d="M546.07,248.81a37,37,0,0,0-2-7.54c-1.81-4.83-4.5-9.57-8.6-12.81a18.79,18.79,0,0,0-8-3.77,22.85,22.85,0,0,0-10.37.35,19.43,19.43,0,0,0-12.32,10.66,38.13,38.13,0,0,0-3.25,12.14c0,.29-.07.58-.1.86a1,1,0,0,0,1,1,1,1,0,0,0,1-1c0-.28.06-.57.1-.86s0-.3.05-.45a2,2,0,0,1,0-.26c0-.29,0,.15,0-.15.11-.84.25-1.68.41-2.51a34.85,34.85,0,0,1,1.79-6.25c1.79-4.52,5.08-8.72,9.83-10.61A19.14,19.14,0,0,1,533,229.12c4.07,2.72,6.92,7.23,8.69,11.59a41.39,41.39,0,0,1,1.82,5.55c.25,1,.41,2,.63,2.94,0,0,0,.09,0,.13a1,1,0,0,0,1.22.7,1,1,0,0,0,.7-1.22Z"/><ellipse class="cls-11" cx="546.05" cy="258.83" rx="7.29" ry="9.4"/><path class="cls-6" d="M544.24,265.14a56.42,56.42,0,0,1-12.19,8.15,59.42,59.42,0,0,1-7,3.06c-.68.24-.39,1.33.29,1.08a63.53,63.53,0,0,0,18.54-10.51c.39-.32.78-.64,1.15-1,.54-.49-.26-1.28-.8-.8Z"/><ellipse class="cls-6" cx="524.27" cy="277.47" rx="2.57" ry="1.51" transform="translate(-63.32 196.29) rotate(-20.02)"/><path class="cls-6" d="M658.14,380.09H340.89c-4.28,0-8.57-.08-12.86,0-.19,0-.37,0-.56,0a1.66,1.66,0,0,0,0,3.32H644.72c4.29,0,8.58.08,12.86,0,.19,0,.38,0,.56,0a1.66,1.66,0,0,0,0-3.32Z"/><circle class="cls-12" cx="624.03" cy="235.41" r="22.23"/><path class="cls-13" d="M623.29,249.38a9.52,9.52,0,0,0,6.12-4.48,7.69,7.69,0,0,0,.56-1.16c1.42-2.72,1.3-7.24,1.2-8.75a17.28,17.28,0,0,0-2.27-8.78,5.13,5.13,0,0,0-.74-1.2c-2.43-2.62-4.19-3.32-6.91-3.64-1.27-.16-2.49.52-2.43,1.32l.59,7.85c.05.79,1.33,1.26,2.55.94a14.45,14.45,0,0,0,3.59-1.43,15.49,15.49,0,0,1,1,5.24v.05a23.53,23.53,0,0,1-.18,4.84,14.69,14.69,0,0,0-3.76-.91c-1.26-.15-2.49.52-2.43,1.32l.59,7.85C620.79,249.23,622.08,249.71,623.29,249.38Z"/><circle class="cls-14" cx="527.02" cy="190.12" r="16.05"/><path class="cls-15" d="M533.43,187.23a6.41,6.41,0,1,0-12.81,0,7.06,7.06,0,0,0,.38,2.27h0l0,.08a6.49,6.49,0,0,0,.47,1l5.75,9.11,5.57-9.64h0A7,7,0,0,0,533.43,187.23Zm-6.22,2.89a3.08,3.08,0,1,1,3.08-3.08A3.08,3.08,0,0,1,527.21,190.12Z"/><path class="cls-16" d="M455.93,229.54a17,17,0,1,0-7.16,5.24h0l8.45,3.2-1.28-8.45Z"/><circle class="cls-10" cx="436.25" cy="219.62" r="1.39"/><circle class="cls-10" cx="442.33" cy="219.62" r="1.39"/><circle class="cls-10" cx="448.41" cy="219.62" r="1.39"/><circle class="cls-17" cx="468.04" cy="293.93" r="1.65"/><circle class="cls-17" cx="459.37" cy="280.4" r="1.86"/><path class="cls-18" d="M593.29,380.09c3.94-7.71,9.39-15,17-19.13,7.15-3.92,15.58-4.8,23-8.12a37.66,37.66,0,0,0,9.45-6c-1.08,6.95-2.21,14-5.53,20.23-2.44,4.58-6.05,8.61-7.48,13.6"/><path class="cls-19" d="M641.11,349.65a59.57,59.57,0,0,1-10.19,12.41c-3.67,3.39-7.7,6.36-11.49,9.61a66,66,0,0,0-1.09-10.31c-.1-.52-.89-.3-.79.22a65.8,65.8,0,0,1,1.08,10.48.38.38,0,0,0,.1.22c-.35.31-.72.61-1.07.93a30.4,30.4,0,0,0-6,7.21.41.41,0,0,0,.71.41c2.92-5.08,7.66-8.62,12.16-12.23,1.06-.85,2.12-1.71,3.17-2.59a.49.49,0,0,0,.21,0q3.9-.76,7.85-1.17c.52-.05.52-.87,0-.82-2.34.24-4.67.59-7,1a69.08,69.08,0,0,0,7.72-7.58,62.81,62.81,0,0,0,5.34-7.42C642.1,349.62,641.39,349.21,641.11,349.65Z"/><path class="cls-20" d="M515.19,335.46c-.8-8.62-3.18-17.38-8.68-24.06-5.18-6.29-12.69-10.23-18.37-16.07a37.75,37.75,0,0,1-6.54-9.12c-1.57,6.85-3.14,13.86-2.36,20.84.57,5.16,2.43,10.24,1.91,15.4"/><path class="cls-19" d="M482.05,289.47a59.62,59.62,0,0,0,4.88,15.3c2.15,4.51,4.78,8.76,7.1,13.19a66.43,66.43,0,0,1,4.84-9.18c.28-.44.93.05.65.5a65.2,65.2,0,0,0-4.89,9.33.37.37,0,0,1-.18.17c.22.42.45.83.66,1.26A30.33,30.33,0,0,1,498,329a.41.41,0,0,1-.81.13c-.84-5.8-3.93-10.85-6.77-15.86-.67-1.19-1.34-2.39-2-3.59a.52.52,0,0,1-.21,0c-2.23-1.43-4.51-2.77-6.86-4-.46-.25-.16-1,.3-.76,2.09,1.09,4.12,2.27,6.12,3.52a68.21,68.21,0,0,1-4.36-9.91,62.53,62.53,0,0,1-2.22-8.87A.41.41,0,0,1,482.05,289.47Z"/><path class="cls-21" d="M557.14,380.52a65.22,65.22,0,0,1,18-37.26c7.19-7.32,16.05-12.87,23.11-20.31a60.75,60.75,0,0,0,15.67-31.24A77.79,77.79,0,0,1,615.51,354c-3.76,9.08-9.28,17.49-11.62,27"/><g class="cls-22"><path class="cls-10" d="M591.19,332.75c-.56,6.51.08,13.09.45,19.6,0,.52.85.53.82,0-.37-6.51-1-13.09-.45-19.6,0-.53-.77-.53-.82,0Z"/><path class="cls-10" d="M599.51,342.05l15.26-6.57c.49-.21.07-.91-.41-.71l-15.27,6.57c-.48.21-.06.91.42.71Z"/><path class="cls-10" d="M584,364.61,599.23,358c.48-.21.06-.91-.42-.71l-15.26,6.57c-.48.21-.07.92.41.71Z"/><path class="cls-10" d="M574.6,350.47a99.44,99.44,0,0,0,4.6,19.7c.17.49,1,.28.79-.22a97.81,97.81,0,0,1-4.57-19.48c-.07-.51-.89-.52-.82,0Z"/><path class="cls-10" d="M574.69,381.18c4.08-11.77,12.68-21.08,19.62-31.19a143.84,143.84,0,0,0,9.78-17.38,148.53,148.53,0,0,0,7.76-17.45A54,54,0,0,0,615,294.32c0-.52-.85-.52-.82,0a52.42,52.42,0,0,1-2.55,19A126.43,126.43,0,0,1,604,330.88a152.19,152.19,0,0,1-9.67,17.57c-3.38,5.06-7.16,9.82-10.69,14.77-3.94,5.52-7.54,11.31-9.77,17.75-.17.5.62.71.79.21Z"/></g><path class="cls-23" d="M514.7,380.52a65.28,65.28,0,0,0-18-37.26c-7.19-7.32-16.05-12.87-23.12-20.31a60.74,60.74,0,0,1-15.66-31.24A77.75,77.75,0,0,0,456.33,354c3.76,9.08,9.28,17.49,11.62,27"/><g class="cls-22"><path class="cls-10" d="M480.64,332.75c.57,6.51-.07,13.09-.44,19.6,0,.52-.85.53-.82,0,.37-6.51,1-13.09.44-19.6,0-.53.78-.53.82,0Z"/><path class="cls-10" d="M472.33,342.05l-15.26-6.57c-.49-.21-.07-.91.41-.71l15.26,6.57c.49.21.07.91-.41.71Z"/><path class="cls-10" d="M487.88,364.61,472.61,358c-.48-.21-.07-.91.41-.71l15.27,6.57c.48.21.06.92-.41.71Z"/><path class="cls-10" d="M497.24,350.47a99.44,99.44,0,0,1-4.6,19.7c-.17.49-1,.28-.79-.22a97.81,97.81,0,0,0,4.57-19.48c.06-.51.88-.52.82,0Z"/><path class="cls-10" d="M497.15,381.18c-4.09-11.77-12.68-21.08-19.62-31.19a143.84,143.84,0,0,1-9.78-17.38A148.53,148.53,0,0,1,460,315.16a54,54,0,0,1-3.13-20.84c0-.52.85-.52.82,0a52,52,0,0,0,2.55,19,126.37,126.37,0,0,0,7.57,17.58,155.27,155.27,0,0,0,9.67,17.57c3.39,5.06,7.17,9.82,10.7,14.77,3.94,5.52,7.54,11.31,9.77,17.75.17.5-.62.71-.79.21Z"/></g><circle class="cls-24" cx="443.08" cy="292.39" r="0.76"/><circle class="cls-24" cx="468.04" cy="293.98" r="1.65"/><circle class="cls-25" cx="459.37" cy="280.45" r="1.86"/><circle class="cls-26" cx="641.88" cy="377.14" r="0.76"/><circle class="cls-26" cx="646.84" cy="363.71" r="1.65"/><circle class="cls-26" cx="635.12" cy="342.08" r="1.65"/><circle class="cls-26" cx="585.84" cy="309.08" r="0.76"/><circle class="cls-26" cx="604.26" cy="292.16" r="1.65"/><circle class="cls-26" cx="588.49" cy="289.06" r="1.86"/><g class="cls-27"><path class="cls-28" d="M431.09,323.77c-.39-.81-.84-1.86-1.23-2.82s-.78-2-1.14-3l-7.07,2.51c.4,1.11.81,2.21,1.26,3.31s.89,2.15,1.48,3.38Z"/><polygon class="cls-29" points="425.54 320.93 426.24 320.66 425.81 319.49 425.11 319.75 425.54 320.93"/><polygon class="cls-29" points="426.38 323.03 427.07 322.74 426.6 321.59 425.9 321.86 426.38 323.03"/><polygon class="cls-29" points="427.28 325.1 427.96 324.78 427.45 323.65 426.76 323.94 427.28 325.1"/><path class="cls-28" d="M428.72,317.93c-.73-2-1.36-4.11-1.94-6.2l-7.23,2c.63,2.26,1.31,4.5,2.1,6.72Z"/><polygon class="cls-29" points="423.39 314.49 424.11 314.28 423.76 313.08 423.04 313.28 423.39 314.49"/><polygon class="cls-29" points="424.06 316.65 424.77 316.42 424.39 315.23 423.68 315.45 424.06 316.65"/><polygon class="cls-29" points="424.77 318.79 425.48 318.54 425.07 317.36 424.36 317.6 424.77 318.79"/><path class="cls-28" d="M426.78,311.73c-.58-2.09-1.07-4.2-1.51-6.33l-7.35,1.49c.48,2.29,1,4.57,1.63,6.83Z"/><polygon class="cls-29" points="421.7 307.92 422.44 307.76 422.18 306.54 421.44 306.69 421.7 307.92"/><polygon class="cls-29" points="422.22 310.12 422.94 309.94 422.65 308.73 421.92 308.9 422.22 310.12"/><polygon class="cls-29" points="422.78 312.3 423.5 312.11 423.18 310.9 422.45 311.08 422.78 312.3"/><path class="cls-28" d="M425.27,305.4c-.21-1.06-.39-2.13-.59-3.2s-.34-2.14-.47-3.22l-7.44,1c.15,1.16.34,2.31.51,3.47s.41,2.31.64,3.46Z"/><polygon class="cls-29" points="420.48 301.25 421.22 301.14 421.03 299.9 420.29 300 420.48 301.25"/><path class="cls-29" d="M420.83,303.48l.74-.13c-.08-.41-.15-.82-.2-1.23l-.75.12C420.68,302.65,420.75,303.07,420.83,303.48Z"/><polygon class="cls-29" points="421.23 305.69 421.97 305.55 421.75 304.32 421.01 304.46 421.23 305.69"/><path class="cls-28" d="M424.21,299c-.28-2.15-.49-4.3-.61-6.46l-7.49.43c.14,2.35.37,4.68.66,7Z"/><path class="cls-29" d="M419.71,294.51l.75-.06c0-.42-.08-.83-.1-1.25l-.75.05C419.63,293.67,419.68,294.09,419.71,294.51Z"/><polygon class="cls-29" points="419.9 296.76 420.65 296.68 420.54 295.44 419.8 295.5 419.9 296.76"/><polygon class="cls-29" points="420.17 299 420.91 298.9 420.76 297.66 420.02 297.74 420.17 299"/><path class="cls-28" d="M423.6,292.52c-.13-2.17-.17-4.33-.14-6.49l-7.5-.12c0,2.35,0,4.7.15,7Z"/><polygon class="cls-29" points="419.44 287.73 420.19 287.72 420.18 286.48 419.43 286.47 419.44 287.73"/><polygon class="cls-29" points="419.46 289.99 420.21 289.96 420.2 288.72 419.45 288.73 419.46 289.99"/><polygon class="cls-29" points="419.56 292.24 420.31 292.2 420.25 290.95 419.5 290.98 419.56 292.24"/><path class="cls-28" d="M423.46,286c0-1.08,0-2.16.11-3.24l.23-3.23-7.47-.69-.25,3.52c-.07,1.17-.08,2.35-.12,3.52Z"/><polygon class="cls-29" points="419.67 280.95 420.42 281 420.51 279.75 419.76 279.69 419.67 280.95"/><path class="cls-29" d="M419.52,283.2l.75,0c0-.42.06-.84.08-1.25l-.75-.05C419.58,282.36,419.54,282.78,419.52,283.2Z"/><polygon class="cls-29" points="419.46 285.45 420.21 285.47 420.24 284.22 419.49 284.19 419.46 285.45"/><polygon class="cls-28" points="423.8 279.56 424.17 276.35 424.67 273.15 417.28 271.86 416.73 275.36 416.33 278.87 423.8 279.56"/><polygon class="cls-29" points="420.43 274.2 421.17 274.32 421.37 273.08 420.63 272.96 420.43 274.2"/><path class="cls-29" d="M420.11,276.44l.75.09c.05-.41.08-.83.16-1.24l-.74-.1C420.2,275.6,420.16,276,420.11,276.44Z"/><polygon class="cls-29" points="419.86 278.68 420.61 278.75 420.75 277.51 420 277.43 419.86 278.68"/><path class="cls-28" d="M424.67,273.15c.39-2.11.8-4.23,1.37-6.31L418.79,265c-.63,2.27-1.08,4.59-1.51,6.9Z"/><polygon class="cls-29" points="421.72 267.54 422.45 267.71 422.76 266.5 422.03 266.32 421.72 267.54"/><polygon class="cls-29" points="421.24 269.75 421.98 269.9 422.23 268.68 421.5 268.51 421.24 269.75"/><path class="cls-29" d="M420.79,272l.74.14c.07-.41.16-.82.24-1.23l-.73-.14C421,271.13,420.86,271.54,420.79,272Z"/><path class="cls-28" d="M426,266.84c.27-1,.54-2.08.88-3.1s.61-2.07,1-3.08l-7.07-2.47c-.42,1.1-.73,2.24-1.09,3.36s-.67,2.26-1,3.41Z"/><polygon class="cls-29" points="423.57 261.01 424.28 261.24 424.66 260.05 423.95 259.81 423.57 261.01"/><polygon class="cls-29" points="422.89 263.16 423.61 263.38 423.98 262.19 423.27 261.96 422.89 263.16"/><polygon class="cls-29" points="422.29 265.33 423.01 265.53 423.33 264.32 422.6 264.11 422.29 265.33"/><path class="cls-28" d="M427.91,260.66l1.13-3c.4-1,.85-2,1.27-3l-6.85-3.06c-.47,1.09-.95,2.16-1.39,3.26l-1.23,3.32Z"/><polygon class="cls-29" points="425.94 254.65 426.63 254.94 427.13 253.79 426.44 253.49 425.94 254.65"/><path class="cls-29" d="M425.09,256.74l.7.27c.15-.38.27-.78.45-1.16l-.7-.28C425.37,256,425.24,256.35,425.09,256.74Z"/><polygon class="cls-29" points="424.3 258.85 425.01 259.11 425.44 257.94 424.74 257.67 424.3 258.85"/><path class="cls-28" d="M430.31,254.67c.4-1,.9-2,1.38-2.93s.92-1.94,1.48-2.87l-6.58-3.59c-.61,1-1.09,2.09-1.62,3.14s-1.07,2.1-1.51,3.19Z"/><path class="cls-29" d="M428.82,248.5l.66.35c.19-.37.37-.75.58-1.11l-.66-.35C429.18,247.75,429,248.13,428.82,248.5Z"/><polygon class="cls-29" points="427.81 250.53 428.48 250.85 429.04 249.74 428.37 249.4 427.81 250.53"/><path class="cls-29" d="M426.84,252.56l.69.31c.16-.38.32-.77.52-1.14l-.68-.32C427.17,251.79,427,252.17,426.84,252.56Z"/><path class="cls-28" d="M433.17,248.87l1.6-2.81c.55-.93,1.16-1.83,1.73-2.74l-6.28-4.09c-.63,1-1.29,2-1.89,3l-1.74,3.07Z"/><polygon class="cls-29" points="432.19 242.61 432.82 243.01 433.5 241.96 432.87 241.55 432.19 242.61"/><path class="cls-29" d="M431,244.54l.65.38c.21-.36.39-.73.63-1.08l-.64-.39C431.41,243.8,431.22,244.18,431,244.54Z"/><polygon class="cls-29" points="429.9 246.5 430.56 246.87 431.17 245.78 430.52 245.41 429.9 246.5"/><polygon class="cls-28" points="436.5 243.32 437.38 241.96 438.32 240.64 440.22 238 434.25 233.46 432.19 236.31 431.17 237.74 430.22 239.23 436.5 243.32"/><polygon class="cls-29" points="436 237 436.6 237.44 437.33 236.43 436.73 235.98 436 237"/><polygon class="cls-29" points="434.67 238.83 435.29 239.26 436.02 238.25 435.41 237.81 434.67 238.83"/><polygon class="cls-29" points="433.41 240.7 434.04 241.11 434.71 240.06 434.1 239.64 433.41 240.7"/></g><g class="cls-27"><path class="cls-28" d="M462.38,214.9l.54-.45c.19-.16.41-.32.62-.48.42-.33.85-.66,1.29-1,.87-.65,1.8-1.25,2.7-1.87l-4.1-6.28c-1,.69-2,1.35-3,2.09-.5.36-1,.73-1.49,1.12l-.74.58-.79.67Z"/><polygon class="cls-29" points="463.84 208.78 464.26 209.4 465.32 208.68 464.91 208.06 463.84 208.78"/><polygon class="cls-29" points="461.94 210.13 462.39 210.73 463.43 209.98 462.99 209.37 461.94 210.13"/><path class="cls-29" d="M460.12,211.56l.48.58c.32-.27.65-.54,1-.8l-.46-.59C460.79,211,460.45,211.28,460.12,211.56Z"/><path class="cls-28" d="M467.53,211.13c1.86-1.18,3.75-2.33,5.71-3.36l-3.55-6.61c-2.14,1.13-4.21,2.38-6.26,3.69Z"/><path class="cls-29" d="M469.75,205.1l.37.65c.37-.22.74-.42,1.12-.62l-.36-.66C470.5,204.67,470.12,204.88,469.75,205.1Z"/><polygon class="cls-29" points="467.75 206.26 468.13 206.91 469.24 206.26 468.86 205.61 467.75 206.26"/><polygon class="cls-29" points="465.78 207.49 466.19 208.12 467.27 207.44 466.88 206.8 465.78 207.49"/><path class="cls-28" d="M473.24,207.77c1.95-1.06,3.95-2,6-2.91l-3-6.87c-2.21,1-4.39,2-6.52,3.17Z"/><path class="cls-29" d="M476,201.93l.31.68c.39-.18.77-.38,1.17-.54l-.31-.69C476.73,201.55,476.35,201.75,476,201.93Z"/><polygon class="cls-29" points="473.86 202.92 474.19 203.59 475.35 203.04 475.03 202.37 473.86 202.92"/><polygon class="cls-29" points="471.81 203.99 472.16 204.65 473.29 204.05 472.95 203.38 471.81 203.99"/><polygon class="cls-28" points="479.22 204.86 482.29 203.57 485.42 202.42 482.94 195.34 479.54 196.59 476.21 197.99 479.22 204.86"/><polygon class="cls-29" points="482.39 199.25 482.65 199.96 483.86 199.52 483.61 198.81 482.39 199.25"/><path class="cls-29" d="M480.22,200.08l.28.7c.4-.18.79-.33,1.2-.47l-.27-.7C481,199.75,480.62,199.91,480.22,200.08Z"/><polygon class="cls-29" points="478.09 200.98 478.39 201.66 479.57 201.17 479.29 200.47 478.09 200.98"/><path class="cls-28" d="M485.42,202.42c1-.4,2.11-.69,3.17-1s2.11-.68,3.2-.92l-1.94-7.25c-1.17.27-2.31.66-3.47,1s-2.31.68-3.44,1.12Z"/><path class="cls-29" d="M489,197.06l.21.72a12.38,12.38,0,0,1,1.23-.34l-.2-.73C489.83,196.81,489.42,196.93,489,197.06Z"/><polygon class="cls-29" points="486.79 197.75 487.02 198.46 488.24 198.08 488.03 197.37 486.79 197.75"/><path class="cls-29" d="M484.59,198.45l.24.71c.4-.15.81-.28,1.22-.4l-.23-.71C485.4,198.17,485,198.3,484.59,198.45Z"/><path class="cls-28" d="M491.79,200.47l3.23-.81c1.08-.26,2.18-.43,3.27-.65l-1.38-7.37c-1.18.24-2.37.42-3.55.7l-3.51.88Z"/><polygon class="cls-29" points="495.77 195.4 495.93 196.14 497.19 195.9 497.05 195.16 495.77 195.4"/><path class="cls-29" d="M493.51,195.9l.17.73c.42-.1.83-.22,1.25-.3l-.16-.74C494.34,195.68,493.93,195.8,493.51,195.9Z"/><polygon class="cls-29" points="491.26 196.46 491.45 197.19 492.7 196.88 492.52 196.15 491.26 196.46"/><path class="cls-28" d="M498.29,199c2.17-.47,4.39-.69,6.59-1l-.82-7.45c-2.39.32-4.79.56-7.15,1.07Z"/><polygon class="cls-29" points="502.65 194.26 502.74 195.01 504.02 194.84 503.93 194.1 502.65 194.26"/><polygon class="cls-29" points="500.35 194.56 500.46 195.3 501.73 195.14 501.63 194.39 500.35 194.56"/><polygon class="cls-29" points="498.07 194.97 498.2 195.7 499.46 195.46 499.34 194.72 498.07 194.97"/><path class="cls-28" d="M504.88,198c1.1-.17,2.21-.19,3.32-.28l3.33-.23-.26-7.49-3.61.24c-1.2.09-2.41.12-3.6.31Z"/><polygon class="cls-29" points="509.58 193.62 509.63 194.37 510.91 194.29 510.88 193.54 509.58 193.62"/><polygon class="cls-29" points="507.27 193.78 507.33 194.53 508.61 194.44 508.56 193.69 507.27 193.78"/><path class="cls-29" d="M505,194l.07.75c.43-.07.85-.09,1.28-.12l-.07-.75C505.82,193.87,505.39,193.9,505,194Z"/></g><g class="cls-27"><path class="cls-28" d="M544.88,195.69c.86,0,2,0,3,0s2,.09,3.08.16l.52-7.49c-1.13-.07-2.25-.12-3.39-.16s-2.23-.05-3.53,0Z"/><polygon class="cls-29" points="549.51 191.76 549.47 192.5 550.66 192.56 550.71 191.82 549.51 191.76"/><path class="cls-29" d="M547.34,191.68v.75c.4,0,.79,0,1.19,0l0-.75C548.15,191.68,547.74,191.69,547.34,191.68Z"/><polygon class="cls-29" points="545.18 191.67 545.2 192.42 546.39 192.41 546.39 191.66 545.18 191.67"/><path class="cls-28" d="M550.91,195.86c1,.09,2.07.16,3.1.27l3.09.37,1-7.42-3.35-.41c-1.11-.12-2.24-.2-3.36-.3Z"/><polygon class="cls-29" points="555.98 192.32 555.89 193.07 557.08 193.21 557.18 192.47 555.98 192.32"/><path class="cls-29" d="M553.83,192.07l-.07.75c.4,0,.79.09,1.19.13l.08-.74C554.63,192.16,554.23,192.1,553.83,192.07Z"/><polygon class="cls-29" points="551.68 191.89 551.63 192.64 552.82 192.74 552.88 191.99 551.68 191.89"/><path class="cls-28" d="M557.1,196.5c2,.34,4.11.62,6.14,1.09l1.52-7.35c-2.19-.49-4.41-.8-6.62-1.16Z"/><polygon class="cls-29" points="562.4 193.31 562.26 194.05 563.44 194.29 563.58 193.56 562.4 193.31"/><polygon class="cls-29" points="560.27 192.95 560.15 193.69 561.33 193.88 561.46 193.14 560.27 192.95"/><polygon class="cls-29" points="558.14 192.6 558.03 193.34 559.22 193.53 559.33 192.79 558.14 192.6"/><path class="cls-28" d="M563.24,197.59c1,.22,2,.39,3,.67l3,.78,2-7.23L568,191c-1.08-.29-2.19-.47-3.28-.72Z"/><polygon class="cls-29" points="568.74 194.74 568.55 195.47 569.71 195.77 569.91 195.05 568.74 194.74"/><polygon class="cls-29" points="566.65 194.2 566.48 194.93 567.63 195.23 567.82 194.5 566.65 194.2"/><polygon class="cls-29" points="564.54 193.76 564.38 194.49 565.55 194.74 565.72 194 564.54 193.76"/><path class="cls-28" d="M569.31,199c1,.24,2,.57,3,.89l3,.94,2.46-7.09-3.21-1c-1.07-.33-2.13-.69-3.22-.95Z"/><polygon class="cls-29" points="574.98 196.56 574.75 197.28 575.89 197.64 576.13 196.93 574.98 196.56"/><polygon class="cls-29" points="572.92 195.91 572.7 196.63 573.84 196.99 574.07 196.28 572.92 195.91"/><path class="cls-29" d="M570.85,195.29l-.2.72c.39.1.77.2,1.15.33l.21-.72C571.63,195.49,571.24,195.39,570.85,195.29Z"/><path class="cls-28" d="M575.27,200.87c1.94.74,3.89,1.44,5.8,2.25l2.94-6.9c-2.07-.87-4.18-1.64-6.28-2.44Z"/><path class="cls-29" d="M581.09,198.79l-.29.69c.38.15.75.28,1.12.44l.29-.69C581.84,199.07,581.46,198.93,581.09,198.79Z"/><polygon class="cls-29" points="579.06 198.01 578.8 198.72 579.92 199.14 580.19 198.44 579.06 198.01"/><polygon class="cls-29" points="577.05 197.24 576.8 197.95 577.92 198.38 578.18 197.67 577.05 197.24"/><path class="cls-28" d="M581.07,203.12l2.83,1.29c.94.44,1.91.83,2.8,1.35l3.42-6.67c-1-.57-2-1-3-1.47l-3.07-1.4Z"/><path class="cls-29" d="M587,201.42l-.33.68a11.81,11.81,0,0,1,1.07.53l.34-.67C587.76,201.76,587.39,201.58,587,201.42Z"/><polygon class="cls-29" points="585.06 200.53 584.74 201.21 585.83 201.7 586.15 201.03 585.06 200.53"/><polygon class="cls-29" points="583.09 199.63 582.8 200.32 583.89 200.81 584.19 200.13 583.09 199.63"/><path class="cls-28" d="M586.7,205.76l2.73,1.48a27.58,27.58,0,0,1,2.69,1.55l3.89-6.41c-.93-.64-1.94-1.15-2.92-1.69l-3-1.6Z"/><path class="cls-29" d="M592.76,204.48l-.37.65c.35.18.69.4,1,.61l.39-.64A11,11,0,0,0,592.76,204.48Z"/><polygon class="cls-29" points="590.86 203.45 590.5 204.11 591.55 204.68 591.92 204.02 590.86 203.45"/><polygon class="cls-29" points="588.96 202.42 588.62 203.09 589.67 203.66 590.02 203 588.96 202.42"/><path class="cls-28" d="M592.12,208.79l2.61,1.67a30.46,30.46,0,0,1,2.57,1.74l4.35-6.1c-.88-.71-1.85-1.28-2.79-1.9L596,202.38Z"/><path class="cls-29" d="M598.26,208l-.43.62a8.6,8.6,0,0,1,1,.69l.44-.62A11,11,0,0,0,598.26,208Z"/><polygon class="cls-29" points="596.43 206.79 596.03 207.42 597.03 208.06 597.45 207.44 596.43 206.79"/><polygon class="cls-29" points="594.62 205.62 594.22 206.26 595.23 206.91 595.63 206.28 594.62 205.62"/><path class="cls-28" d="M597.3,212.2c1.63,1.27,3.33,2.45,4.91,3.78l4.8-5.76c-1.72-1.45-3.57-2.74-5.36-4.12Z"/><path class="cls-29" d="M603.47,211.84l-.47.58c.31.25.65.47.94.74l.48-.58C604.12,212.31,603.79,212.09,603.47,211.84Z"/><polygon class="cls-29" points="601.74 210.53 601.29 211.13 602.24 211.85 602.71 211.26 601.74 210.53"/><polygon class="cls-29" points="600.02 209.23 599.58 209.84 600.54 210.56 600.99 209.96 600.02 209.23"/><polygon class="cls-28" points="602.21 215.98 606.83 220.11 612.06 214.74 607.01 210.22 602.21 215.98"/><polygon class="cls-29" points="608.37 216.11 607.86 216.66 608.75 217.45 609.27 216.91 608.37 216.11"/><polygon class="cls-29" points="606.76 214.67 606.26 215.23 607.15 216.02 607.66 215.47 606.76 214.67"/><polygon class="cls-29" points="605.15 213.23 604.66 213.8 605.56 214.6 606.05 214.03 605.15 213.23"/></g><g class="cls-27"><path class="cls-28" d="M635.46,256.14c.4.78.88,1.8,1.29,2.75s.82,2,1.2,3l7-2.66c-.42-1.1-.86-2.2-1.33-3.28s-1-2.12-1.57-3.34Z"/><path class="cls-29" d="M641.06,258.79l-.69.28c.16.39.31.77.45,1.16l.7-.27C641.37,259.57,641.22,259.18,641.06,258.79Z"/><polygon class="cls-29" points="640.18 256.72 639.5 257.03 639.99 258.16 640.68 257.87 640.18 256.72"/><path class="cls-29" d="M639.23,254.69l-.67.34c.18.36.36.73.53,1.11l.68-.32C639.6,255.44,639.41,255.07,639.23,254.69Z"/><path class="cls-28" d="M638,261.85c.75,2,1.45,4,2,6.09l7.2-2.08c-.64-2.26-1.4-4.47-2.22-6.67Z"/><polygon class="cls-29" points="643.34 265.15 642.62 265.37 642.97 266.56 643.69 266.35 643.34 265.15"/><polygon class="cls-29" points="642.64 263.01 641.93 263.25 642.32 264.43 643.03 264.2 642.64 263.01"/><polygon class="cls-29" points="641.88 260.9 641.18 261.16 641.6 262.33 642.31 262.08 641.88 260.9"/><path class="cls-28" d="M640,267.94c.6,2.06,1.11,4.15,1.54,6.25l7.34-1.51q-.69-3.45-1.68-6.82Z"/><polygon class="cls-29" points="645.08 271.67 644.35 271.83 644.62 273.05 645.36 272.89 645.08 271.67"/><path class="cls-29" d="M644.56,269.48l-.73.19q.17.6.3,1.2l.73-.17C644.77,270.29,644.67,269.89,644.56,269.48Z"/><polygon class="cls-29" points="643.98 267.32 643.26 267.52 643.58 268.72 644.3 268.53 643.98 267.32"/><path class="cls-28" d="M641.52,274.19c.42,2.1.79,4.21,1,6.33l7.45-.89c-.26-2.34-.66-4.65-1.13-6.95Z"/><path class="cls-29" d="M646.31,278.31l-.74.1c.07.41.11.82.16,1.23l.74-.09C646.42,279.13,646.38,278.72,646.31,278.31Z"/><polygon class="cls-29" points="645.96 276.08 645.22 276.21 645.41 277.44 646.16 277.32 645.96 276.08"/><polygon class="cls-29" points="645.55 273.88 644.81 274.03 645.05 275.25 645.79 275.11 645.55 273.88"/><path class="cls-28" d="M642.54,280.52c.14,1.06.25,2.13.32,3.19l.12,1.6,0,1.6,7.5-.25-.06-1.76-.14-1.76c-.07-1.18-.19-2.35-.34-3.51Z"/><polygon class="cls-29" points="646.98 285.02 646.23 285.07 646.28 286.31 647.03 286.28 646.98 285.02"/><polygon class="cls-29" points="646.81 282.78 646.07 282.85 646.16 284.08 646.91 284.03 646.81 282.78"/><polygon class="cls-29" points="646.59 280.55 645.84 280.64 645.99 281.87 646.74 281.8 646.59 280.55"/><path class="cls-28" d="M643,286.91l.05,1.59,0,1.6c0,1.06,0,2.13-.11,3.19l7.48.44c.1-1.17.12-2.35.13-3.53l0-1.77-.05-1.77Z"/><path class="cls-29" d="M647.05,291.78l-.75,0c0,.41,0,.83-.06,1.24l.75,0C647,292.61,647.05,292.19,647.05,291.78Z"/><polygon class="cls-29" points="647.09 289.53 646.34 289.52 646.32 290.76 647.07 290.78 647.09 289.53"/><polygon class="cls-29" points="647.06 287.29 646.31 287.31 646.35 288.55 647.1 288.54 647.06 287.29"/><path class="cls-28" d="M643,293.29c-.07,1.06-.12,2.12-.27,3.17s-.21,2.11-.42,3.15l7.41,1.18c.23-1.17.31-2.35.47-3.52s.22-2.36.29-3.54Z"/><path class="cls-29" d="M646.48,298.51l-.74-.1c0,.41-.09.82-.17,1.23l.74.11C646.4,299.34,646.43,298.92,646.48,298.51Z"/><polygon class="cls-29" points="646.74 296.27 646 296.2 645.85 297.43 646.6 297.52 646.74 296.27"/><polygon class="cls-29" points="646.92 294.04 646.17 293.99 646.09 295.23 646.84 295.29 646.92 294.04"/><path class="cls-28" d="M642.26,299.61c-.19,1-.33,2.1-.57,3.13l-.72,3.09,7.26,1.91.8-3.46c.26-1.16.43-2.33.64-3.49Z"/><polygon class="cls-29" points="645.25 305.15 644.52 304.97 644.24 306.18 644.97 306.37 645.25 305.15"/><path class="cls-29" d="M645.76,303l-.74-.14c-.08.4-.18.8-.27,1.21l.73.16C645.57,303.77,645.68,303.36,645.76,303Z"/><polygon class="cls-29" points="646.14 300.75 645.4 300.62 645.19 301.84 645.93 301.98 646.14 300.75"/><path class="cls-28" d="M641,305.83l-.9,3c-.29,1-.71,2-1.05,3l7,2.65c.39-1.12.86-2.22,1.18-3.36l1-3.41Z"/><polygon class="cls-29" points="643.38 311.63 642.67 311.39 642.24 312.55 642.95 312.81 643.38 311.63"/><polygon class="cls-29" points="644.07 309.5 643.36 309.27 643 310.46 643.72 310.7 644.07 309.5"/><polygon class="cls-29" points="644.71 307.35 643.99 307.15 643.64 308.34 644.36 308.55 644.71 307.35"/><path class="cls-28" d="M639,311.86c-.34,1-.77,2-1.2,2.94s-.82,1.95-1.34,2.88l6.71,3.34c.58-1,1-2.14,1.5-3.22s1-2.17,1.34-3.29Z"/><path class="cls-29" d="M640.84,317.89l-.68-.31c-.16.38-.33.75-.53,1.12l.67.33A11.87,11.87,0,0,0,640.84,317.89Z"/><polygon class="cls-29" points="641.75 315.83 641.06 315.54 640.56 316.68 641.24 316.98 641.75 315.83"/><path class="cls-29" d="M642.6,313.76l-.7-.27c-.15.39-.27.78-.45,1.16l.7.28C642.33,314.55,642.45,314.15,642.6,313.76Z"/><polygon class="cls-28" points="636.48 317.68 635.01 320.5 633.36 323.22 639.71 327.21 641.55 324.17 643.19 321.02 636.48 317.68"/><polygon class="cls-29" points="637.67 323.86 637.02 323.47 636.38 324.53 637.02 324.93 637.67 323.86"/><path class="cls-29" d="M638.8,321.91l-.65-.36c-.19.37-.4.73-.62,1.08l.66.37A10.5,10.5,0,0,0,638.8,321.91Z"/><polygon class="cls-29" points="639.84 319.92 639.17 319.58 638.6 320.68 639.26 321.04 639.84 319.92"/><path class="cls-28" d="M633.36,323.22c-.52.92-1.17,1.77-1.77,2.65s-1.17,1.77-1.87,2.58l5.95,4.57c.76-.9,1.38-1.91,2.08-2.87s1.37-1.91,2-2.94Z"/><path class="cls-29" d="M634,329.49l-.61-.44a12.2,12.2,0,0,1-.73,1l.6.46C633.49,330.19,633.71,329.84,634,329.49Z"/><polygon class="cls-29" points="635.25 327.65 634.63 327.23 633.91 328.25 634.53 328.68 635.25 327.65"/><path class="cls-29" d="M636.5,325.79l-.64-.4a11.48,11.48,0,0,1-.67,1l.62.41A10.55,10.55,0,0,0,636.5,325.79Z"/><path class="cls-28" d="M629.72,328.45l-2,2.5c-.66.84-1.43,1.59-2.13,2.4l5.53,5.06c.78-.88,1.61-1.71,2.34-2.64l2.21-2.75Z"/><polygon class="cls-29" points="629.73 334.76 629.17 334.27 628.33 335.18 628.89 335.69 629.73 334.76"/><polygon class="cls-29" points="631.18 333.05 630.61 332.57 629.83 333.54 630.4 334.02 631.18 333.05"/><polygon class="cls-29" points="632.59 331.3 631.99 330.83 631.22 331.8 631.8 332.27 632.59 331.3"/><path class="cls-28" d="M625.59,333.35c-1.4,1.62-3,3.07-4.52,4.57l5.12,5.48c1.67-1.63,3.39-3.22,4.93-5Z"/><polygon class="cls-29" points="625.07 339.64 624.54 339.1 623.65 339.96 624.17 340.51 625.07 339.64"/><polygon class="cls-29" points="626.68 338.07 626.15 337.55 625.25 338.41 625.78 338.95 626.68 338.07"/><polygon class="cls-29" points="628.21 336.43 627.66 335.92 626.82 336.84 627.36 337.36 628.21 336.43"/><path class="cls-28" d="M621.07,337.92c-.75.77-1.6,1.44-2.41,2.15l-2.45,2.1,4.7,5.84,2.66-2.28c.88-.76,1.79-1.49,2.62-2.33Z"/><polygon class="cls-29" points="620.06 344.16 619.58 343.58 618.63 344.39 619.11 344.97 620.06 344.16"/><polygon class="cls-29" points="621.76 342.69 621.27 342.13 620.32 342.94 620.81 343.51 621.76 342.69"/><path class="cls-29" d="M623.44,341.21l-.51-.55a10.29,10.29,0,0,1-.92.83l.5.56A12.36,12.36,0,0,0,623.44,341.21Z"/></g><path class="cls-10" d="M541.59,290c-4.59,3.78-9.11,5.31-15.59,4.91a9.72,9.72,0,0,1-6.58-2.51,16.53,16.53,0,0,0-5.2,8.47c-1.85,9.74-2,19.64-2.06,29.51l-.5,47.14a.61.61,0,0,0,.11.41,1,1,0,0,0,.53.21,99.62,99.62,0,0,0,22.44,1.27c3.38-.19,6.89-.54,10.07.42-.46-4.23.85-8.43,2-12.56,2.55-9.08,4.45-18.35,4.07-27.66-.12-3.11-.5-6.22-.62-9.33-.21-5.24.31-10.48.24-15.73a70.7,70.7,0,0,0-1.74-14.61c-.88-3.89-4.24-6.81-7.19-9.94"/><path class="cls-30" d="M519.42,292.39c-.23,6.81-.92,12.94-1,20.76,0,3.6-.22,6.35-.21,10,0,2.48-.18,4.95-.36,7.42l-3.53,46.79a1.27,1.27,0,0,1-.26.81,2.05,2.05,0,0,1-1.54.35l-17.61-.65,1.45-12.61a69.14,69.14,0,0,0,.67-12.85c-.3-4.26-1.4-8.49-1.49-12.76a54.87,54.87,0,0,1,.69-8.47l1.6-11.95c1-7.13,2.12-14.69,7.64-20.25a42.52,42.52,0,0,1,5.21-4.23c2.38-1.73,5.57-2,8.73-2.31"/><path class="cls-31" d="M514.59,293.3c-2.85,0-5.53,1.62-8.9,2.8-3.62,1.27-5.95,3.63-8.58,6.13-2.31,2.21-7.58,9.39-9.65,11.83-5.9,6.91-11.61,14.93-16.9,22.32-4.08,5.69-7.08,6.84-12.59,11.15-3.83,3-8.31,5-12.62,7.26a126,126,0,0,0-17.25,10.87,2.46,2.46,0,0,0-1.23,2.94l.85,6.07a1.79,1.79,0,0,0,.36,1,1.75,1.75,0,0,0,1.17.43,70.71,70.71,0,0,0,11.46.11,65.49,65.49,0,0,0,11.44-1.38A79.48,79.48,0,0,0,463,371.18c5.33-2.1,10.71-4.21,15.54-7.29,9.15-5.81,15.85-14.73,21.83-23.77a37.78,37.78,0,0,0,3-5.22,39.17,39.17,0,0,0,2.12-6.91c1.1-4.56,2.18-9.11,3.25-13.68"/><path class="cls-31" d="M541.59,290A274.88,274.88,0,0,1,541,317.8c-2,23.55-2.33,37.42-7,60.6a1.5,1.5,0,0,0,.28,1.55,2.45,2.45,0,0,0,1.47.34l20.1.33a2.43,2.43,0,0,0,1.18-.17,1.66,1.66,0,0,0,.7-1c2.68-7,3.11-14.51,3.35-21.89q.47-14.67,0-29.36c-.29-9.42-.83-19,2.35-28.08.46-1.33,1.51-2.57.56-3.71a8.32,8.32,0,0,0-2.62-1.56c-5.36-2.23-14.07-3.56-19.86-4.89"/><path class="cls-32" d="M519,292.79s.88.14,1.75,2.67A65,65,0,0,1,522.52,321c-1.71,11.17-2.13,26.12-1.14,29.69.79,2.84,3.77,11.07,21-.2s1.27,11.92,1.27,11.92l-30.66,7.89s-6.3-25.32-5.77-26.21"/><path class="cls-33" d="M537.27,357.28s6.14-2.38,12-9.88,5-12.77,5-16.94-.69-27.2,7.25-26.51,1.39,39.32,1.39,39.32l-10.33,11.92-11.52,5"/><path class="cls-31" d="M563.53,296.1a41.49,41.49,0,0,0-5.8,14.35c-1.53,7.27-.93,10.37-1,18.73,0,4.74.8,9.57-.79,15.55-1.23,4.63-4.91,6.82-9.24,8.86s-9,3.34-13.44,5c-10.72,3.85-20.9,6.66-31,12-3.1,1.64.31,5.53.27,6.15a2.22,2.22,0,0,0,.43,1.25c1.87,3.22,2.18,2.55,3.94,3.71.64.42,2.62-.52,3.28-.15s2.4-.07,3.13-.1a66.52,66.52,0,0,0,8.24-.5c13.37-2.34,24.91,1.54,37.41-3.74,3.42-1.45,6.85-3,9.55-5.59,3.82-3.62,5.75-8.77,7.17-13.85,5.32-19.12,4.53-40.74-6.06-57.52a9,9,0,0,0-6.12-4.09"/><path class="cls-9" d="M501,372.05s-9.32-1.62-13.19-.8-9.27,2.06-9.16,5.13l22.35,0"/><path class="cls-33" d="M495.67,371.28s2-15.55.76-25.37c0,0,2.87-19.56,4.68-17.65s2.27,9.9,1.35,16.2-2.69,22.26-1.83,27.84"/><rect class="cls-34" x="367.92" y="376.38" width="163.39" height="4.27" rx="1.62" ry="1.62"/><path class="cls-35" d="M468,380.64H370.48a2.56,2.56,0,0,1-2.56-2.31l-6.81-64.64a2.58,2.58,0,0,1,2.57-2.85h98.44a2.59,2.59,0,0,1,2.58,2.34l5.89,64.65A2.57,2.57,0,0,1,468,380.64Z"/><path class="cls-36" d="M464.84,380.64H367.31a2.58,2.58,0,0,1-2.57-2.31l-6.81-64.64a2.58,2.58,0,0,1,2.57-2.85H459a2.58,2.58,0,0,1,2.57,2.34l5.9,64.65A2.59,2.59,0,0,1,464.84,380.64Z"/><circle class="cls-37" cx="408.85" cy="346.6" r="5.4"/></g></svg>