<?xml version="1.0" encoding="UTF-8" standalone="no"?>
<svg
   xmlns:dc="http://purl.org/dc/elements/1.1/"
   xmlns:cc="http://creativecommons.org/ns#"
   xmlns:rdf="http://www.w3.org/1999/02/22-rdf-syntax-ns#"
   xmlns:svg="http://www.w3.org/2000/svg"
   xmlns="http://www.w3.org/2000/svg"
   xmlns:sodipodi="http://sodipodi.sourceforge.net/DTD/sodipodi-0.dtd"
   xmlns:inkscape="http://www.inkscape.org/namespaces/inkscape"
   id="Слой_1"
   data-name="Слой 1"
   viewBox="0 0 3200 2000"
   version="1.1"
   sodipodi:docname="6595.svg"
   inkscape:version="1.0.1 (3bc2e813f5, 2020-09-07)">
  <metadata
     id="metadata2335">
    <rdf:RDF>
      <cc:Work
         rdf:about="">
        <dc:format>image/svg+xml</dc:format>
        <dc:type
           rdf:resource="http://purl.org/dc/dcmitype/StillImage" />
      </cc:Work>
    </rdf:RDF>
  </metadata>
  <sodipodi:namedview
     pagecolor="#ffffff"
     bordercolor="#666666"
     borderopacity="1"
     objecttolerance="10"
     gridtolerance="10"
     guidetolerance="10"
     inkscape:pageopacity="0"
     inkscape:pageshadow="2"
     inkscape:window-width="1920"
     inkscape:window-height="1051"
     id="namedview2333"
     showgrid="false"
     inkscape:zoom="0.3796875"
     inkscape:cx="1440.4363"
     inkscape:cy="1338.4249"
     inkscape:window-x="-9"
     inkscape:window-y="-9"
     inkscape:window-maximized="1"
     inkscape:current-layer="Слой_1" />
  <defs
     id="defs2116">
    <style
       id="style2114">.cls-1{fill:#fff;}.cls-17,.cls-18,.cls-2{fill:#ebf3fa;}.cls-3{fill:#c8dbf4;}.cls-4{fill:#bad4f4;}.cls-5{fill:#ed975d;}.cls-6{fill:#ffb27d;}.cls-7{fill:#163560;}.cls-8{fill:#ed7d2b;}.cls-9{fill:#f99746;}.cls-10{fill:#1c468a;}.cls-11{fill:#ffac73;}.cls-12{fill:#2c3a64;}.cls-13{fill:#143d7a;}.cls-14{fill:#b24940;}.cls-15{fill:#c65447;}.cls-16{fill:#f9ddbf;}.cls-17{opacity:0.5;}.cls-18{opacity:0.3;}.cls-19{fill:#d4e4f8;}.cls-20{fill:#9fc1f4;}.cls-21{fill:#9abfe2;}.cls-22{fill:#dfebfd;}.cls-23{fill:#b7d3f3;}.cls-24{fill:#c0d8fb;}.cls-25{fill:#77a4e5;}.cls-26{fill:#2e3552;}.cls-27{fill:#afdff9;}</style>
  </defs>
  <title
     id="title2118">6595</title>
  <rect
     class="cls-1"
     width="3200"
     height="2000"
     id="rect2120" />
  <path
     class="cls-2"
     d="M542.53,1750.42S282.24,1540.68,375,1245.59c68.21-216.94,280-344.68,576.2-294.49,276,46.77,575.84-2.24,833.89-344.67,301.17-399.62,983.2-157.18,896.46,314.9-57.1,310.77,382.17,325.36,144.66,829.72Z"
     transform="translate(-0.01 -0.01)"
     id="path2122" />
  <path
     class="cls-3"
     d="M1835.94,1742.77h-.55a7.65,7.65,0,0,1-7.47-8.37l29.7-314,25.91,2.45-42.64,315.73A4.9,4.9,0,0,1,1835.94,1742.77Z"
     transform="translate(-0.01 -0.01)"
     id="path2124" />
  <path
     class="cls-3"
     d="M2121.86,1742.77h.54a7.65,7.65,0,0,0,7.47-8.37l-29.69-314-25.91,2.45,42.63,315.73A4.91,4.91,0,0,0,2121.86,1742.77Z"
     transform="translate(-0.01 -0.01)"
     id="path2126" />
  <path
     class="cls-4"
     d="M1626.45,1742.77h-.54a7.65,7.65,0,0,1-7.47-8.37l29.69-314,25.91,2.45-42.64,315.73A4.89,4.89,0,0,1,1626.45,1742.77Z"
     transform="translate(-0.01 -0.01)"
     id="path2128" />
  <polygon
     class="cls-3"
     points="2113.01 1389.78 2234.43 953.9 1966.22 953.9 1851.29 1374.66 2113.01 1389.78"
     id="polygon2130" />
  <rect
     class="cls-3"
     x="1681.45"
     y="1374.66"
     width="431.55"
     height="50.27"
     rx="15.12"
     ry="15.12"
     id="rect2132" />
  <rect
     class="cls-4"
     x="1558.08"
     y="1374.66"
     width="305.95"
     height="50.27"
     rx="12.73"
     ry="12.73"
     id="rect2134" />
  <path
     class="cls-5"
     d="M2198,1131.56c-3.48,20-13.27,37.45-13.9,39-5.31,13.17-34.45-59.08-34.45-59.08l-4.36-27.84-7.07-45.21-2-12.69-7.92-50.59,2-7.69,9.52-37.38-.86-8.52s29.37,16.26,37.37,47.11c2.84,10.92,6.93,34.08,10.81,60,.61,4.06,4,5.74,4.62,9.9C2196.74,1073.87,2201.05,1114.13,2198,1131.56Z"
     transform="translate(-0.01 -0.01)"
     id="path2136" />
  <path
     class="cls-6"
     d="M1660.74,1174.47s8.16-4.36,15.32-5c40.39-3.48,128-33.46,137.25-40.32,17.11-12.67,88.6-72.81,116.78-103.16,0,0,23.61-27.74,23.61-27.74,26.66-28.71,2.48-78.83,2.48-78.83s-45.8,19.45-62.37,38.59c-10.81,12.49-93.59,115-103.92,120-33.66,16.4-129.09,72.41-139.05,76.81C1650.84,1154.89,1637.92,1163.87,1660.74,1174.47Z"
     transform="translate(-0.01 -0.01)"
     id="path2138" />
  <path
     class="cls-7"
     d="M1408.94,1670.17s5.54,71.82-6.78,72.77c-1.64.13-62.52.13-62.52.13l-77.7-.47s.51-19.54,23.22-23.67,67.67-24.07,81.43-55.4C1381.06,1630.58,1408.94,1670.17,1408.94,1670.17Z"
     transform="translate(-0.01 -0.01)"
     id="path2140" />
  <path
     class="cls-8"
     d="M1949.75,1229.09S1942.91,1359.3,1931,1382c0,0-5.33-1.88-44.23-2.22-47.07-.42-271.84-1.32-298.8,12.32-8.43,4.27-32.6,105.75-177,280.37,0,0-14.37,9.66-36.32,8.07-21-1.53-22.71-5.41-22.71-5.41s137.37-351.1,167.78-380c46.47-44.18,284.35-89.62,319.16-90.64S1949.75,1229.09,1949.75,1229.09Z"
     transform="translate(-0.01 -0.01)"
     id="path2142"
     style="fill:#ffe373;fill-opacity:1" />
  <path
     class="cls-7"
     d="M1570,1673.2s5.55,68.84-6.78,69.75c-1.64.12-62.51.12-62.51.12l-77.71-.45s.51-18.72,23.22-22.68,67.67-23.07,81.43-53.1C1542.16,1635.26,1570,1673.2,1570,1673.2Z"
     transform="translate(-0.01 -0.01)"
     id="path2144" />
  <path
     class="cls-9"
     d="M2039.15,1229.09s-1.89,36-5.41,73.43c-4.35,46.12-33,75.44-79,80.25-31,3.24-67.68,1.53-91.9,1.39-116.79-.65-158.49-5.72-185.45,7.92-8.43,4.27,31.67,68.3-105,280.37,0,0-10.3,8.24-33.15,11.49-13.63,1.94-29.36-3.25-29.36-3.25s42.42-333.47,77-372c24.71-27.58,220.69-59.92,255.5-60.94S2039.15,1229.09,2039.15,1229.09Z"
     transform="translate(-0.01 -0.01)"
     id="path2146"
     style="fill:#ffeda6;fill-opacity:1" />
  <path
     class="cls-10"
     d="M2198,1044.49s-24,21.68-63.88,17.94c-2.26,11.58-5.09,24.44-8.39,38.06-.27,1.13-.55,2.27-.83,3.42-5.2,21.19-11.52,44.09-18.61,66.68-20.59,65.61-47.74,128.8-73.47,141.23-2.7,1.3-79.16.58-131.5-19.78-15.15-5.89-29.71-14.92-42.87-24.91-19.08-14.48-35.19-31-45.75-42.82a20.64,20.64,0,0,1,1.7-29.17c19.7-17.56,52.5-48.59,59.88-66.78,6.23-15.35,15.41-47.62,22.76-74.95-38.68-10.26-47.51-52.33-47.51-52.33s63.32-68.94,83.16-81.63c26-16.59,60.3-18.71,73.75-21,33-5.67,71.88-4.68,132.49,23.16,0,0,34.32,18.55,43.46,54.35S2198,1044.49,2198,1044.49Z"
     transform="translate(-0.01 -0.01)"
     id="path2148" />
  <path
     class="cls-5"
     d="M2040.71,948.16c-32.53,2.46-35.35-23.8-35.35-23.8l.73-17.42.86-20.46s23.56-12.43,42.13-21c11.86-5.49,21.69-9.43,22.08-7.58,2.71,12.73,10.55,38.09,18.69,49.5C2094.62,927.12,2073.25,945.69,2040.71,948.16Z"
     transform="translate(-0.01 -0.01)"
     id="path2150" />
  <path
     class="cls-11"
     d="M1994.92,892s81.7,7.39,85.52-43.56,16.93-84.31-35.07-91.18-63.6,11.81-69,28.51S1973.77,888.77,1994.92,892Z"
     transform="translate(-0.01 -0.01)"
     id="path2152" />
  <path
     class="cls-12"
     d="M2109.45,753.75c.76-.85,2.49-1.54,6.35-1.74a15.74,15.74,0,0,0-7.19-2c-.79-5.36-3.61-14.86-12.82-17.2a11.54,11.54,0,0,1,5.57,8.36c-10.64-11-33.49-19.07-96.88-14.31-83.54,6.28-56.22,59.86-45.43,66.27s38.07-11,58.21-9.28,23.86,30.79,30.68,34.81,4.16-3.05,13.42-7.19,10.09,11.18,7.38,21.13,10,23.14,10,23.14l12.89-13.78c12.89-13.78,25.21-72.3,19.41-84.81C2110.48,756,2110,754.88,2109.45,753.75Z"
     transform="translate(-0.01 -0.01)"
     id="path2154" />
  <path
     class="cls-11"
     d="M1985.67,862s2.79,8.21,11.92,8.21c13,0,18.06-8.93,18.06-8.93S1998.13,856.88,1985.67,862Z"
     transform="translate(-0.01 -0.01)"
     id="path2156" />
  <path
     class="cls-5"
     d="M2026.46,891s-6.48-10.76,0-12.93c33.21-11.14,42.92-4.85,42.92-4.85Z"
     transform="translate(-0.01 -0.01)"
     id="path2158" />
  <path
     class="cls-6"
     d="M2080.4,921.43s2.93-49.17-14.35-48.8-38.6,5.88-39.41,10.29c-2.29,12.36,17.61,54.26,27.49,56.12S2080.4,921.43,2080.4,921.43Z"
     transform="translate(-0.01 -0.01)"
     id="path2160" />
  <path
     class="cls-13"
     d="M2124.91,1103.91c-5.2,21.19-11.52,44.09-18.61,66.68-20.59,65.61-47.74,128.8-73.47,141.23-2.7,1.3-79.16.58-131.5-19.78-15.15-5.89-29.71-14.92-42.87-24.91,35.06,10.55,92.78.69,146.9-17.79,58-19.81,60.83-91.4,60.83-91.4,16.76-39.61-5-175.27-5-175.27Z"
     transform="translate(-0.01 -0.01)"
     id="path2162" />
  <path
     class="cls-6"
     d="M2051.71,937.81s46.45,252.46,107.82,252.61c23.64,0,52.58-61.38,21.35-96.34-44.83-50.19-100.48-172.65-100.48-172.65S2072.62,916.53,2051.71,937.81Z"
     transform="translate(-0.01 -0.01)"
     id="path2164" />
  <path
     class="cls-6"
     d="M1650.84,1154.89s-19.36,3.28-29.48,0-72,20.56-64.55,21.14,44.49-4.91,53.13-4.18,13.24,1.13,9.86,4.22-27.38,4-19,6.62,29,1.9,37.71,0,18.26-6.11,24-9.11C1669,1170.22,1650.84,1154.89,1650.84,1154.89Z"
     transform="translate(-0.01 -0.01)"
     id="path2166" />
  <path
     class="cls-14"
     d="M1579.29,1191.54h155.33a12.38,12.38,0,0,0-12.38-12.38h-143Z"
     transform="translate(-0.01 -0.01)"
     id="path2168"
     style="fill:#ff877d;fill-opacity:1" />
  <polygon
     class="cls-14"
     points="1579.73 1022.37 1339.59 1022.37 1397.19 1191.53 1638.89 1191.53 1579.73 1022.37"
     id="polygon2170" />
  <polygon
     class="cls-15"
     points="1336.05 1022.36 1393.65 1191.53 1635.35 1191.53 1576.19 1022.36 1336.05 1022.36"
     id="polygon2172"
     style="fill:#ff879b;fill-opacity:1" />
  <path
     class="cls-16"
     d="M1465.53,1105.39c1.49,6.46,7.94,11.7,14.4,11.7s10.5-5.24,9-11.7-8-11.7-14.41-11.7S1464,1098.93,1465.53,1105.39Z"
     transform="translate(-0.01 -0.01)"
     id="path2174" />
  <path
     class="cls-2"
     d="M1623.53,490c-.45,29.47-5.93,56.56-12.13,78.07-8.54,29.66-18.46,48.7-18.46,48.7-.32.14-1.22,1.47-2.72,3.82-.94,1.47-2.11,3.34-3.53,5.58s-3.28,5.15-5.34,8.29c-4.73,7.2-10.94,16.31-18.75,26.77s-17.27,22.33-28.41,35c-11.33,12.86-24.43,26.56-39.41,40.51a569.77,569.77,0,0,1-44,37h0c-63.66,48.25-151.09,93.31-267,110.94q-11.73,1.8-23.85,3.2l-6.13.69c-29.82,3.34-59,5.77-87.22,7.24q-9.27.48-18.4.82c-254.63,9.64-430.85-61.51-364.75-253.83Q687.49,631,693,619q5.25-11.5,11.75-23.07Q712.52,582,722,568.11a501.8,501.8,0,0,1,43.6-54.84q10.64-11.72,22.26-23.23,2.91-2.9,5.88-5.76C850,429.76,921.67,379.14,999.43,338.92c20.53-10.62,41.49-20.51,62.71-29.55h0c137.39-58.58,285.56-81.7,398.36-36.77,49.3,19.64,84.61,44.33,109.45,71.43a201,201,0,0,1,33.88,50.09C1619,426.25,1624,459.43,1623.53,490Z"
     transform="translate(-0.01 -0.01)"
     id="path2176" />
  <path
     class="cls-2"
     d="M1623.53,490c-.45,29.47-5.93,56.56-12.13,78.07H722a501.8,501.8,0,0,1,43.6-54.84q10.64-11.72,22.26-23.23,2.91-2.9,5.88-5.76C850,429.76,921.67,379.14,999.43,338.92c20.53-10.62,41.49-20.51,62.71-29.55h0c137.39-58.58,285.56-81.7,398.36-36.77,49.3,19.64,84.61,44.33,109.45,71.43a201,201,0,0,1,33.88,50.09C1619,426.25,1624,459.43,1623.53,490Z"
     transform="translate(-0.01 -0.01)"
     id="path2178" />
  <path
     class="cls-2"
     d="M1623.53,490c-.45,29.47-5.93,56.56-12.13,78.07-8.54,29.66-18.46,48.7-18.46,48.7-.32.14-1.22,1.47-2.72,3.82-.94,1.47-2.11,3.34-3.53,5.58s-3.28,5.15-5.34,8.29c-4.73,7.2-10.94,16.31-18.75,26.77s-17.27,22.33-28.41,35c-11.33,12.86-24.43,26.56-39.41,40.51H693V619q5.25-11.5,11.75-23.07Q712.52,582,722,568.11a501.8,501.8,0,0,1,43.6-54.84q10.64-11.72,22.26-23.23Z"
     transform="translate(-0.01 -0.01)"
     id="path2180" />
  <path
     class="cls-2"
     d="M1136,490H787.86q2.91-2.9,5.88-5.76c60.2,2.94,253.36-5.81,281.59-3.64,7.68.59,15.13,1.43,22,2.37,6.38.87,12.29,1.82,17.47,2.73C1127.66,488,1136,490,1136,490Z"
     transform="translate(-0.01 -0.01)"
     id="path2182" />
  <path
     class="cls-17"
     d="M1245.09,340.52l-245.66-1.6c20.53-10.62,41.49-20.51,62.71-29.55h0c26.27-1.69,83.5-3.44,128.88,8.77C1231.67,329.06,1245.09,340.52,1245.09,340.52Z"
     transform="translate(-0.01 -0.01)"
     id="path2184" />
  <path
     class="cls-2"
     d="M1335.09,348.57a12.13,12.13,0,1,1,12.12,12.12A12.12,12.12,0,0,1,1335.09,348.57Z"
     transform="translate(-0.01 -0.01)"
     id="path2186" />
  <path
     class="cls-2"
     d="M1534.19,696.26c-11.33,12.86-24.43,26.56-39.41,40.51a569.77,569.77,0,0,1-44,37h0c-63.66,48.25-151.09,93.31-267,110.94q-11.73,1.8-23.85,3.2l-6.13.69c-29.82,3.34-59,5.77-87.22,7.24q-9.27.48-18.4.82c-254.63,9.64-430.85-61.51-364.75-253.83Q687.49,631,693,619q5.25-11.5,11.75-23.07Q712.52,582,722,568.11a501.8,501.8,0,0,1,43.6-54.84l113.48,5.5h0l157.06,7.62s24.87-.37,46.72,2.27c11.4,1.38,22,3.58,27.78,7.09,2.31,1.39,3.86,3,4.4,4.82.75,2.54-1,4.83-4.19,7-8.6,5.87-27.73,11-36.81,18.16a18.87,18.87,0,0,0-2.54,2.38c-2.89,3.31-3.51,7.06-.22,11.49a23.5,23.5,0,0,0,3.5,3.69,63.48,63.48,0,0,0,11.08,7.47A74.08,74.08,0,0,0,1098,596a129,129,0,0,0,13.82,3.79c25.36,5.59,59.6,7,96,7.61,10.86.18,21.92.28,33,.39h0c49.68.49,99.67,1.22,134,10.08,15.35,4,28.07,7.66,38.51,11.11,113.22,37.32-40.54,45.1,9.12,54.12C1445.37,687.28,1490.14,692.1,1534.19,696.26Z"
     transform="translate(-0.01 -0.01)"
     id="path2188" />
  <path
     class="cls-2"
     d="M1450.78,773.75c-63.66,48.25-151.09,93.31-267,110.94q-11.73,1.8-23.85,3.2l-6.13.69c-29.82,3.34-59,5.77-87.22,7.24q-9.27.48-18.4.82c-254.63,9.64-430.85-61.51-364.75-253.83Q687.49,631,693,619q5.25-11.5,11.75-23.07l213.4,14.64h0l52.12,3.57s96.89-2,102.78,26.13c1.57,7.49-5.19,13.78-14.67,20-26.15,17.09-73,33.48-23.34,72.49a56.83,56.83,0,0,0,5.9,4c11.78,7.07,28.89,12.51,49.8,16.71,15,3,32,5.43,50.46,7.36l.37,0c17.56,1.83,36.41,3.23,56,4.34C1280.08,769.86,1376.5,769.34,1450.78,773.75Z"
     transform="translate(-0.01 -0.01)"
     id="path2190" />
  <path
     class="cls-2"
     d="M1429.27,592.59s46.75-5.79,55.21-3.13,13.34,7.1,28.28,4.88S1539,601,1546.53,601s18.29.75,25.34,3.88c0,0-15.71-.16-21.6,1.66s-22.21-11.11-25.89-11-19.16,4.73-28.87-.1-8.87-5.22-12.22-4.7S1449.9,595.06,1429.27,592.59Z"
     transform="translate(-0.01 -0.01)"
     id="path2192" />
  <path
     class="cls-17"
     d="M1603.84,394.11l-202.43-1.32s24.64-28.93,83.58-25.72c0,0,35.42-19.95,85-23.05A201,201,0,0,1,1603.84,394.11Z"
     transform="translate(-0.01 -0.01)"
     id="path2194" />
  <path
     class="cls-18"
     d="M990.48,426.15s15.39-18.08,52.21-16.07c0,0,53.46-30.13,110.47-4,0,0,60.59-6.47,105.47,5.6,29.92,8,39.8,16.5,39.8,16.5Z"
     transform="translate(-0.01 -0.01)"
     id="path2196" />
  <path
     class="cls-2"
     d="M1586.69,626.21c-1.5,2.37-3.28,5.15-5.34,8.29-4.73,7.2-10.94,16.31-18.75,26.77l-50.69-6.75L1469.78,618l-3.81-3.3,50.34,11.22,28.61,1.59Z"
     transform="translate(-0.01 -0.01)"
     id="path2198" />
  <path
     class="cls-2"
     d="M1590.22,620.63c-.94,1.47-2.11,3.34-3.53,5.58s-3.28,5.15-5.34,8.29c-23.57,0-51.88-2.12-73.94-9a214.39,214.39,0,0,0-37.63-7.55c-20.55-2.4-37.26-2.23-39.92-3.3,0,0,30.17-6,54.8-1.87s23,14.29,50.44,13.11C1550.83,625.26,1572,622.14,1590.22,620.63Z"
     transform="translate(-0.01 -0.01)"
     id="path2200" />
  <path
     class="cls-2"
     d="M1221,580.89s58.46-5.78,69-3.13,16.68,7.1,35.37,4.88,32.85,6.68,42.22,6.64,22.87.75,31.68,3.87c0,0-19.64-.16-27,1.66s-27.76-11.1-32.36-11-24,4.74-36.1-.09-11.1-5.23-15.27-4.7S1246.81,583.37,1221,580.89Z"
     transform="translate(-0.01 -0.01)"
     id="path2202" />
  <path
     class="cls-2"
     d="M1353.93,535.21s4,3.07,35.14-3.59c6.16-1.32,10,5.15,19.87,1.68s18.56,2.26,23.65,1.49,10.21-2.1,17.93,2.31c0,0-10.7,1.38-14.47,3.61s-20.78-7.69-23.27-7.24-8.19,5.93-15.43,2.48-6.72-3.88-8.92-3.08S1366.66,540.94,1353.93,535.21Z"
     transform="translate(-0.01 -0.01)"
     id="path2204" />
  <path
     class="cls-2"
     d="M1317.2,530.12s2.07,1.57,18-1.84c3.15-.67,4.18,2,9.23.18s10.42,1.84,13,1.44,5.23-1.07,9.18,1.19c0,0-5.48.7-7.41,1.84s-10.62-3.93-11.9-3.7-4.19,3-7.89,1.27-3.43-2-4.56-1.58S1323.71,533.05,1317.2,530.12Z"
     transform="translate(-0.01 -0.01)"
     id="path2206" />
  <path
     class="cls-2"
     d="M1208.18,643.17v0c0,.09,0,.29,0,.62-.26,3.12-1.39,17-2.94,36.41-1,11.69-2,25.39-3.2,39.93q-.67,8.45-1.43,16.6c-.41,4.29-.82,8.52-1.25,12.66-.56,5.41-1.14,10.68-1.72,15.78-4.15,36.24-8.73,64.09-10,73.6a437.83,437.83,0,0,0-3.78,45.88q-11.73,1.8-23.85,3.2l-6.13.69c-3.22-15.83-7-37.34-11-65.48-1.59-11.34,1.5-29.3,1.43-30.22-.72-9.7-1.65-20.6-2.69-32,0-.21,0-.43-.06-.64h0c-.11-1.14-.22-2.28-.32-3.42-.62-6.58-1.26-13.3-1.93-20-2.23-22.59-4.65-45.28-6.61-63.17-1.81-16.39-3.22-28.75-3.75-33.33-.14-1.27-.22-1.94-.22-1.94l43.79,2.67h0l17,1,6.58.4Z"
     transform="translate(-0.01 -0.01)"
     id="path2208" />
  <path
     class="cls-2"
     d="M1195.18,647.33s-2.16,4.83-5.91,13l0,.09c-2.26,4.95-5.09,11.11-8.37,18.17-7.43,16-17.16,36.64-27.7,58.15-1.21,2.48-2.44,5-3.68,7.46q-3,6.16-6.15,12.34l-1.84,3.65h0c-.1.21-.21.4-.31.61-12,23.72-24.32,46.83-35,64.41-24.86,40.83-35.39,61.5-39.59,70.57q-9.27.48-18.4.82c1-13.29,9-111.65,36.33-134.94a29.25,29.25,0,0,0,6.22-8.22c.34-.62.67-1.25,1-1.91a102.06,102.06,0,0,0,5.79-14.8c7-22.3,10.76-51.73,11.23-62.8,0-1.15.12-2.39.19-3.68.7-11.71,2.46-28.49,3.52-38.14v0c.51-4.63.86-7.61.86-7.61L1172.45,641h0l7.09,2h0l8.06,2.25,6.64,1.86Z"
     transform="translate(-0.01 -0.01)"
     id="path2210" />
  <path
     class="cls-2"
     d="M1125.23,456.18s36.76,11.58,55.67,2.56a47.29,47.29,0,0,0-15-8.78c.11-4.07.14-7.6,0-10.57a95.6,95.6,0,0,0-.7-10.7l-14.77-8.49-14-8.15C1141.53,440,1125.23,456.18,1125.23,456.18Z"
     transform="translate(-0.01 -0.01)"
     id="path2212" />
  <path
     class="cls-2"
     d="M1112.53,638.33c-.08,2.13,95,6,95.6,5.5.54-.38-1.46-136.15-4.84-149.64-4.08-15.92-13.32-26.45-21.71-34.11l-6.92-6.06a33.32,33.32,0,0,1-21.55-2.58c-8-3.86-16.63-8-18-7-10.47,7.66-17.55,24.86-21.32,46.84l-.06.32a245.66,245.66,0,0,0-3.1,41.36C1110.62,538.45,1112.6,635.91,1112.53,638.33Z"
     transform="translate(-0.01 -0.01)"
     id="path2214" />
  <path
     class="cls-2"
     d="M1137.8,422.8s11,14.57,28.15,16.59a95.6,95.6,0,0,0-.7-10.7l-14.77-8.49Z"
     transform="translate(-0.01 -0.01)"
     id="path2216" />
  <path
     class="cls-2"
     d="M1171.23,427.36s-32,10.12-38-9.58-14.18-31.66,6-38.95,26.45-1,30.08,5.11S1179.4,424.22,1171.23,427.36Z"
     transform="translate(-0.01 -0.01)"
     id="path2218" />
  <path
     class="cls-2"
     d="M1115.56,379.81c-.35-.3-1.08-.48-2.62-.34a6.29,6.29,0,0,1,2.74-1.22c0-2.17.59-6.09,4.11-7.53a4.62,4.62,0,0,0-1.74,3.62c3.61-5,12.22-9.44,37.62-11.11,33.47-2.19,25.65,20.58,21.73,23.73s-15.71-2.21-23.6-.42-7.74,13.55-10.21,15.53-1.83-1-5.73-2.1-3.37,5-1.74,8.79-2.65,9.74-2.65,9.74l-5.88-4.74c-5.88-4.74-14-27.26-12.46-32.54C1115.27,380.75,1115.41,380.28,1115.56,379.81Z"
     transform="translate(-0.01 -0.01)"
     id="path2220" />
  <path
     class="cls-2"
     d="M1207.92,611.29,1213,746s-32.49,11.06-59.26,2.14S1207.92,611.29,1207.92,611.29Z"
     transform="translate(-0.01 -0.01)"
     id="path2222" />
  <path
     class="cls-2"
     d="M1207.92,611.29h-95.85l-27.91,137.09s26.76,14.75,69.12,6.66Z"
     transform="translate(-0.01 -0.01)"
     id="path2224" />
  <path
     class="cls-2"
     d="M812.91,544.64c2,12.49,140,102.63,299.5,126.17s294.14,6.72,300.68-37.59-117.48-99.31-277-122.85S810.33,528.12,812.91,544.64Z"
     transform="translate(-0.01 -0.01)"
     id="path2226" />
  <path
     class="cls-2"
     d="M812.91,544.64c2,12.49,140,102.63,299.5,126.17s294.14,6.72,300.68-37.59Z"
     transform="translate(-0.01 -0.01)"
     id="path2228" />
  <path
     class="cls-2"
     d="M1135.11,444.3s-20.95,9.93-31,25.18c-15.58,23.66-33.65,109.88-34,117.86s14,54.46,14,54.46,8,7.78,11.53.86c0,0,2.14-56.7,3.87-60.43s57.16-77.69,50.92-93.47S1135.11,444.3,1135.11,444.3Z"
     transform="translate(-0.01 -0.01)"
     id="path2230" />
  <path
     class="cls-2"
     d="M1084.16,641.8s1.75,16.92,3.65,20.12,10.79,12.5,13.51,15.44c.18.2,2-1.36.61-3.61-5.38-9.09-3.88-6.91-2-12.88.92-3,1.49,5.54,3,5.74s1-9,1-11.75-7.65-4.09-8.56-14.15C1094.82,634.24,1084.16,641.8,1084.16,641.8Z"
     transform="translate(-0.01 -0.01)"
     id="path2232" />
  <path
     class="cls-2"
     d="M1087.81,661.92l9.92,16.59a1.64,1.64,0,0,0,1-1.68c-.19-1.19-3.06-10.17-3.06-10.17Z"
     transform="translate(-0.01 -0.01)"
     id="path2234" />
  <path
     class="cls-2"
     d="M1097.75,662.4s7.15,8.16,5.56,10l-5.16-4Z"
     transform="translate(-0.01 -0.01)"
     id="path2236" />
  <path
     class="cls-2"
     d="M1172.35,414.23s-.12,2.95-2.26,3.86-8.28,0-8.28,0S1166.74,413.7,1172.35,414.23Z"
     transform="translate(-0.01 -0.01)"
     id="path2238" />
  <path
     class="cls-3"
     d="M741.57,1501.08s38.86-45.33,2.4-74.12c0,0-26.63-16.13-48.35-14.82,0,0,30.77,51.6,20.82,56.73s-30.14-60-30.14-60-60.61-5.88-80.1,3.49c0,0,51.8,42.4,40.89,44.92s-66.87-39.09-66.87-39.09-56.4,9.6-53.4,44,22.45,45,31,44.12,58.51-20,59.6-13-29,29.87-50.06,30.94c0,0,39.77,43.86,66.2,31.2s28.69-32.72,45.16-40.24,30.54-7.51,23.74.17-36.62,15.13-46,31.79-17.88,27.91,9.47,23.8,71.79-24.13,73.74-47Z"
     transform="translate(-0.01 -0.01)"
     id="path2240" />
  <path
     class="cls-3"
     d="M554.54,1463.17s153.2-5.9,187,37.91c0,0,7.49,22.41,30.51,42.82l3.59,9.78s-26.55-28-36-29.69C739.62,1524,754.48,1469.71,554.54,1463.17Z"
     transform="translate(-0.01 -0.01)"
     id="path2242" />
  <path
     class="cls-3"
     d="M772.08,1543.9s32.88,24.31,35.17,67.77l-6,.53s-10.5-44.93-29.49-62.5S772.08,1543.9,772.08,1543.9Z"
     transform="translate(-0.01 -0.01)"
     id="path2244" />
  <path
     class="cls-3"
     d="M877.43,1444.07s-61.81-34.61-33-81.59c0,0,23.08-28.84,47.8-36.26,0,0-13.19,70,0,71.7s9.06-79.11,9.06-79.11S966.43,1287.49,992,1290c0,0-40.38,68.4-27.2,66.75s58.51-70.87,58.51-70.87,66.76-12.36,77.47,27.2-6.59,59.33-16.48,61.81-73.35,1.64-71.7,9.89,44.5,21.42,68.4,14c0,0-26.37,65.1-61,61.8s-45.33-24.72-66.76-26.37-37.08,4.12-26.37,9.89,47,1.89,64.28,16.61,31.32,23.77-.82,30.37S900.5,1493.52,889,1468.8Z"
     transform="translate(-0.01 -0.01)"
     id="path2246" />
  <path
     class="cls-3"
     d="M1070.27,1325.4s-173.07,56-192.84,118.67c0,0,.82,28-16.49,60.16v12.36s18.13-42,28-47.79C889,1468.8,850.23,1414.4,1070.27,1325.4Z"
     transform="translate(-0.01 -0.01)"
     id="path2248" />
  <path
     class="cls-3"
     d="M860.94,1504.23s-26.69,40.53-11.47,89.87l6.87-1.85s-6.67-54.34,7.29-81.67S860.94,1504.23,860.94,1504.23Z"
     transform="translate(-0.01 -0.01)"
     id="path2250" />
  <path
     class="cls-19"
     d="M779.09,1396.34s81.48-45.63,43.46-107.55c0,0-30.42-38-63-47.8,0,0,17.38,92.34,0,94.51s-11.95-104.29-11.95-104.29-85.82-41.28-119.5-38c0,0,53.23,90.17,35.85,88s-77.13-93.42-77.13-93.42-88-16.3-102.12,35.85,8.69,78.21,21.73,81.47,96.68,2.18,94.51,13-58.66,28.24-90.17,18.47c0,0,34.77,85.82,80.39,81.47s59.75-32.59,88-34.76,48.88,5.43,34.76,13-61.92,2.49-84.73,21.88-41.29,31.35,1.08,40,118.41,3.26,133.62-29.33Z"
     transform="translate(-0.01 -0.01)"
     id="path2252" />
  <path
     class="cls-19"
     d="M524.89,1239.9s228.13,73.87,254.2,156.44c0,0-1.08,36.93,21.73,79.3v16.29s-23.9-55.4-36.94-63C763.88,1428.93,814.94,1357.23,524.89,1239.9Z"
     transform="translate(-0.01 -0.01)"
     id="path2254" />
  <path
     class="cls-19"
     d="M800.82,1475.64s35.18,53.42,15.12,118.46l-9.05-2.43s8.79-71.63-9.62-107.66S800.82,1475.64,800.82,1475.64Z"
     transform="translate(-0.01 -0.01)"
     id="path2256" />
  <path
     class="cls-19"
     d="M781.84,1735.13a159.6,159.6,0,0,1-159.6-159.6h319.2A159.61,159.61,0,0,1,781.84,1735.13Z"
     transform="translate(-0.01 -0.01)"
     id="path2258" />
  <path
     class="cls-19"
     d="M620,1743.25H943.64A19.69,19.69,0,0,0,924,1723.56H639.72A19.69,19.69,0,0,0,620,1743.25Z"
     transform="translate(-0.01 -0.01)"
     id="path2260" />
  <rect
     class="cls-20"
     x="618.61"
     y="1575.53"
     width="328.07"
     height="4.9"
     transform="translate(1565.29 3155.94) rotate(180)"
     id="rect2262" />
  <path
     class="cls-21"
     d="M2321.6,1303v11.13c0,3.9,1.26,7.08,2.8,7.08h406.23c1.54,0,2.81-3.18,2.81-7.08V1303c0-3.89-1.27-7.08-2.81-7.08H2324.4C2322.86,1296,2321.6,1299.14,2321.6,1303Z"
     transform="translate(-0.01 -0.01)"
     id="path2264" />
  <path
     class="cls-4"
     d="M2321.6,1303v11.13c0,3.9,1.16,7.08,2.57,7.08h322.51c1.41,0,2.57-3.18,2.57-7.08V1303c0-3.89-1.16-7.08-2.57-7.08H2324.17C2322.76,1296,2321.6,1299.14,2321.6,1303Z"
     transform="translate(-0.01 -0.01)"
     id="path2266" />
  <rect
     class="cls-3"
     x="2424.42"
     y="1321.24"
     width="288.4"
     height="420.35"
     transform="translate(5137.23 3062.83) rotate(180)"
     id="rect2268" />
  <rect
     class="cls-22"
     x="2343.6"
     y="1321.24"
     width="288.4"
     height="420.35"
     transform="translate(4975.59 3062.83) rotate(180)"
     id="rect2270" />
  <path
     class="cls-23"
     d="M2359.09,1333.12H2616.5v385.27H2359.09Zm254.63,2.78H2361.87v379.71h251.85Z"
     transform="translate(-0.01 -0.01)"
     id="path2272" />
  <rect
     class="cls-23"
     x="2360.48"
     y="1460.56"
     width="254.63"
     height="2.78"
     id="rect2274" />
  <rect
     class="cls-23"
     x="2360.48"
     y="1590.49"
     width="254.63"
     height="2.78"
     id="rect2276" />
  <path
     class="cls-23"
     d="M2461.7,1358H2509a4.18,4.18,0,0,0,4.17-4.17h0a4.17,4.17,0,0,0-4.17-4.17H2461.7a4.18,4.18,0,0,0-4.17,4.17h0A4.19,4.19,0,0,0,2461.7,1358Z"
     transform="translate(-0.01 -0.01)"
     id="path2278" />
  <path
     class="cls-23"
     d="M2461.7,1485H2509a4.18,4.18,0,0,0,4.17-4.17h0a4.18,4.18,0,0,0-4.17-4.17H2461.7a4.19,4.19,0,0,0-4.17,4.17h0A4.19,4.19,0,0,0,2461.7,1485Z"
     transform="translate(-0.01 -0.01)"
     id="path2280" />
  <path
     class="cls-23"
     d="M2461.7,1617.48H2509a4.17,4.17,0,0,0,4.17-4.17h0a4.18,4.18,0,0,0-4.17-4.17H2461.7a4.19,4.19,0,0,0-4.17,4.17h0A4.18,4.18,0,0,0,2461.7,1617.48Z"
     transform="translate(-0.01 -0.01)"
     id="path2282" />
  <rect
     class="cls-24"
     x="2230.52"
     y="581.68"
     width="210.55"
     height="204.27"
     rx="15.06"
     ry="15.06"
     id="rect2284" />
  <path
     class="cls-22"
     d="M2253.4,590.53h164.8A13.76,13.76,0,0,1,2432,604.28V763.34a13.76,13.76,0,0,1-13.76,13.76H2253.4a13.75,13.75,0,0,1-13.75-13.75V604.28A13.76,13.76,0,0,1,2253.4,590.53Z"
     id="path2286" />
  <path
     class="cls-23"
     d="M2331.45,609.18a4.36,4.36,0,1,1,4.36,4.36A4.36,4.36,0,0,1,2331.45,609.18Z"
     transform="translate(-0.01 -0.01)"
     id="path2288" />
  <path
     class="cls-23"
     d="M2366.64,615.34a4.36,4.36,0,1,1,1.69,5.93A4.37,4.37,0,0,1,2366.64,615.34Z"
     transform="translate(-0.01 -0.01)"
     id="path2290" />
  <path
     class="cls-23"
     d="M2396.79,639.3a4.36,4.36,0,1,1-1.3,6A4.35,4.35,0,0,1,2396.79,639.3Z"
     transform="translate(-0.01 -0.01)"
     id="path2292" />
  <path
     class="cls-23"
     d="M2411.73,676.37a4.37,4.37,0,1,1-4.37,4.36A4.37,4.37,0,0,1,2411.73,676.37Z"
     transform="translate(-0.01 -0.01)"
     id="path2294" />
  <path
     class="cls-23"
     d="M2404.1,719.4a4.36,4.36,0,1,1-6.17,0A4.37,4.37,0,0,1,2404.1,719.4Z"
     transform="translate(-0.01 -0.01)"
     id="path2296" />
  <path
     class="cls-23"
     d="M2376.71,746.86a4.36,4.36,0,1,1-6.17,0A4.35,4.35,0,0,1,2376.71,746.86Z"
     transform="translate(-0.01 -0.01)"
     id="path2298" />
  <path
     class="cls-23"
     d="M2331.45,761a4.36,4.36,0,1,1,4.36,4.37A4.36,4.36,0,0,1,2331.45,761Z"
     transform="translate(-0.01 -0.01)"
     id="path2300" />
  <path
     class="cls-23"
     d="M2304.84,615.34a4.36,4.36,0,1,0-1.7,5.93A4.37,4.37,0,0,0,2304.84,615.34Z"
     transform="translate(-0.01 -0.01)"
     id="path2302" />
  <path
     class="cls-23"
     d="M2274.69,639.3a4.36,4.36,0,1,0,1.3,6A4.35,4.35,0,0,0,2274.69,639.3Z"
     transform="translate(-0.01 -0.01)"
     id="path2304" />
  <path
     class="cls-23"
     d="M2259.75,676.37a4.37,4.37,0,1,0,4.36,4.36A4.36,4.36,0,0,0,2259.75,676.37Z"
     transform="translate(-0.01 -0.01)"
     id="path2306" />
  <path
     class="cls-23"
     d="M2267.38,719.4a4.36,4.36,0,1,0,6.16,0A4.35,4.35,0,0,0,2267.38,719.4Z"
     transform="translate(-0.01 -0.01)"
     id="path2308" />
  <path
     class="cls-23"
     d="M2294.77,746.86a4.36,4.36,0,1,0,6.16,0A4.35,4.35,0,0,0,2294.77,746.86Z"
     transform="translate(-0.01 -0.01)"
     id="path2310" />
  <path
     class="cls-23"
     d="M2334.63,680.73a4.37,4.37,0,1,1,4.36,4.37A4.36,4.36,0,0,1,2334.63,680.73Z"
     transform="translate(-0.01 -0.01)"
     id="path2312" />
  <rect
     class="cls-23"
     x="2338.39"
     y="626.24"
     width="1.19"
     height="54.49"
     id="rect2314" />
  <rect
     class="cls-23"
     x="2334.53"
     y="667.53"
     width="36.72"
     height="3.57"
     transform="translate(88.87 1595.76) rotate(-38.13)"
     id="rect2316" />
  <path
     class="cls-25"
     d="M1089.81,1222.05H2258.27a15.82,15.82,0,0,0,15.82-15.82h0a15.82,15.82,0,0,0-15.82-15.81H1089.81a15.81,15.81,0,0,0-15.81,15.81h0A15.81,15.81,0,0,0,1089.81,1222.05Z"
     transform="translate(-0.01 -0.01)"
     id="path2318" />
  <path
     class="cls-25"
     d="M1121.83,1743.2l-.35,0a7.92,7.92,0,0,1-6.54-8.93l63-528,35.28,1.1-84.6,530.56A6.13,6.13,0,0,1,1121.83,1743.2Z"
     transform="translate(-0.01 -0.01)"
     id="path2320" />
  <path
     class="cls-25"
     d="M2227.49,1743.2l.35,0a7.92,7.92,0,0,0,6.54-8.93l-63-528-35.28,1.1,84.6,530.56A6.13,6.13,0,0,0,2227.49,1743.2Z"
     transform="translate(-0.01 -0.01)"
     id="path2322" />
  <rect
     class="cls-26"
     x="301.67"
     y="1742.85"
     width="2643.77"
     height="7.01"
     rx="3"
     ry="3"
     id="rect2324" />
  <path
     class="cls-27"
     d="M1673.16,554.66a32,32,0,1,1,32,32A32,32,0,0,1,1673.16,554.66Z"
     transform="translate(-0.01 -0.01)"
     id="path2326" />
  <circle
     class="cls-27"
     cx="1820.03"
     cy="628.22"
     r="18.28"
     id="circle2328" />
  <path
     class="cls-27"
     d="M1856.73,712.09a10.71,10.71,0,1,1,10.71,10.71A10.71,10.71,0,0,1,1856.73,712.09Z"
     transform="translate(-0.01 -0.01)"
     id="path2330" />
</svg>
