<svg width="1440" height="1024" viewBox="0 0 1440 1024" fill="none" xmlns="http://www.w3.org/2000/svg">
<g clip-path="url(#clip0)">
<path opacity="0.3" d="M819.695 588.595H600.211C593.07 588.595 587.335 594.384 587.335 601.471V692.9C587.335 700.041 593.124 705.776 600.211 705.776H622.987C621.689 715.838 619.958 730.283 620.877 730.283C621.905 730.283 632.942 715.081 639.65 705.776H819.695C826.836 705.776 832.571 699.987 832.571 692.9V601.471C832.571 594.384 826.836 588.595 819.695 588.595Z" fill="white"/>
<path d="M830.19 564.304H610.707C603.565 564.304 597.831 570.093 597.831 577.18V668.609C597.831 675.75 603.62 681.485 610.707 681.485H633.483C632.184 691.547 630.453 705.992 631.373 705.992C632.401 705.992 643.437 690.79 650.146 681.485H830.19C837.331 681.485 843.066 675.696 843.066 668.609V577.18C843.066 570.093 837.331 564.304 830.19 564.304Z" fill="#FF5C5F"/>
<path d="M663.151 646.115C675.764 633.502 675.764 613.053 663.151 600.44C650.538 587.827 630.088 587.827 617.475 600.44C604.862 613.053 604.862 633.502 617.475 646.115C630.088 658.728 650.538 658.728 663.151 646.115Z" fill="white"/>
<path d="M645.385 639.557H635.917V649.025H645.385V639.557Z" fill="#FFC0BB"/>
<path d="M645.439 645.238V639.557H635.971V644.372C637.973 645.454 641.003 646.103 645.439 645.238Z" fill="#F99893"/>
<path d="M660.371 622.57C659.397 622.083 658.207 622.191 657.179 622.678C657.557 613.319 649.875 605.474 640.299 605.799C630.67 605.474 623.042 613.319 623.42 622.678C622.392 622.137 621.256 622.083 620.228 622.57C618.335 623.49 617.74 626.195 618.93 628.575C620.12 630.956 622.609 632.092 624.502 631.172C624.773 631.064 624.989 630.901 625.206 630.685C626.288 638.421 632.78 644.21 640.354 644.102C647.928 644.21 654.365 638.421 655.502 630.685C655.718 630.901 655.934 631.064 656.205 631.172C658.098 632.092 660.587 630.956 661.777 628.575C662.913 626.195 662.318 623.49 660.371 622.57Z" fill="#FFC0BB"/>
<path d="M628.776 602.12C628.776 602.12 633.537 598.063 644.357 598.766C655.177 599.415 657.233 605.042 657.882 613.157L657.233 622.732C657.233 622.732 654.419 619.865 650.741 611.804C650.741 611.804 644.681 618.621 642.031 617.809C639.38 616.998 643.004 612.129 643.004 612.129C643.004 612.129 630.67 622.732 623.366 622.732C623.366 622.732 619.525 610.289 624.935 605.745C624.935 605.745 620.877 605.961 620.661 605.15C620.445 604.338 622.609 603.148 626.504 603.581C626.504 603.581 623.691 598.117 625.26 597.576C626.883 596.981 628.776 602.12 628.776 602.12Z" fill="#07085B"/>
<path d="M646.521 633.606C646.088 635.5 643.978 636.961 641.327 637.015C638.676 637.069 636.458 635.77 635.917 633.931L646.521 633.606Z" fill="white"/>
<path d="M811.147 596.277H685.04C684.337 596.277 683.742 595.682 683.742 594.979V591.895C683.742 591.192 684.337 590.597 685.04 590.597H811.147C811.85 590.597 812.446 591.192 812.446 591.895V594.979C812.391 595.736 811.85 596.277 811.147 596.277Z" fill="white"/>
<path d="M712.902 611.101H685.04C684.337 611.101 683.742 610.506 683.742 609.802V606.719C683.742 606.015 684.337 605.42 685.04 605.42H712.902C713.605 605.42 714.2 606.015 714.2 606.719V609.802C714.146 610.56 713.605 611.101 712.902 611.101Z" fill="white"/>
<path d="M811.147 611.101H726.913C726.21 611.101 725.615 610.506 725.615 609.802V606.719C725.615 606.015 726.21 605.42 726.913 605.42H811.147C811.85 605.42 812.445 606.015 812.445 606.719V609.802C812.391 610.56 811.85 611.101 811.147 611.101Z" fill="white"/>
<path d="M748.932 625.924H685.04C684.337 625.924 683.742 625.329 683.742 624.626V621.542C683.742 620.839 684.337 620.244 685.04 620.244H748.932C749.636 620.244 750.231 620.839 750.231 621.542V624.626C750.231 625.383 749.636 625.924 748.932 625.924Z" fill="white"/>
<path d="M811.147 625.924H761.213C760.51 625.924 759.915 625.329 759.915 624.626V621.542C759.915 620.839 760.51 620.244 761.213 620.244H811.147C811.851 620.244 812.446 620.839 812.446 621.542V624.626C812.392 625.383 811.851 625.924 811.147 625.924Z" fill="white"/>
<path d="M811.147 640.747H685.04C684.337 640.747 683.742 640.152 683.742 639.449V636.365C683.742 635.662 684.337 635.067 685.04 635.067H811.147C811.85 635.067 812.446 635.662 812.446 636.365V639.449C812.391 640.152 811.85 640.747 811.147 640.747Z" fill="white"/>
<path opacity="0.3" d="M1173.13 451.397H921.782C913.126 451.397 906.039 458.43 906.039 467.141V570.85C906.039 579.506 913.072 586.593 921.782 586.593H1119.68C1127.69 597.792 1142.19 617.809 1143.48 617.809C1144.67 617.809 1142.35 598.928 1140.72 586.593H1173.13C1181.79 586.593 1188.87 579.56 1188.87 570.85V467.086C1188.87 458.43 1181.84 451.397 1173.13 451.397Z" fill="white"/>
<path d="M1162.74 424.456H911.394C902.738 424.456 895.651 431.489 895.651 440.199V543.909C895.651 552.565 902.684 559.652 911.394 559.652H1109.29C1117.3 570.85 1131.8 590.867 1133.1 590.867C1134.29 590.867 1131.96 571.986 1130.34 559.652H1162.74C1171.4 559.652 1178.49 552.619 1178.49 543.909V440.199C1178.49 431.489 1171.45 424.456 1162.74 424.456Z" fill="#D4145A"/>
<path d="M964.878 528.43C984.972 520.02 994.453 496.936 986.054 476.87C977.656 456.804 954.559 447.355 934.466 455.765C914.372 464.175 904.891 487.259 913.29 507.325C921.688 527.391 944.785 536.84 964.878 528.43Z" fill="white"/>
<path d="M929.139 493.109C929.139 493.109 925.244 477.095 934.549 471.09C943.854 465.085 953.809 463.732 960.571 467.195C969.985 472.01 973.88 484.94 970.85 492.135L945.856 485.859L929.139 493.109Z" fill="#040744"/>
<path d="M955.865 511.936H944.287V523.513H955.865V511.936Z" fill="#FFC0BB"/>
<path d="M955.865 518.86V511.936H944.287V517.832C946.776 519.131 950.455 519.888 955.865 518.86Z" fill="#F99893"/>
<path d="M974.096 491.215C972.906 490.62 971.5 490.728 970.201 491.378C970.634 479.962 961.329 470.387 949.589 470.82C937.849 470.441 928.544 480.017 928.977 491.378C927.733 490.728 926.326 490.62 925.082 491.215C922.755 492.351 922.052 495.651 923.459 498.519C924.865 501.386 927.949 502.847 930.221 501.711C930.546 501.548 930.816 501.332 931.087 501.116C932.439 510.529 940.284 517.616 949.535 517.454C958.786 517.562 966.631 510.529 967.983 501.116C968.254 501.332 968.524 501.548 968.849 501.711C971.175 502.847 974.205 501.44 975.611 498.519C977.126 495.651 976.423 492.351 974.096 491.215Z" fill="#FFC0BB"/>
<path d="M957.217 504.686C956.73 506.958 954.079 508.744 950.888 508.852C947.696 508.96 944.937 507.337 944.287 505.065L957.217 504.686Z" fill="white"/>
<path d="M929.031 491.378C929.031 491.378 944.179 486.779 950.779 479.151C950.779 479.151 948.886 488.402 947.479 489.863C947.912 490.133 962.627 482.992 964.575 476.446C966.577 469.846 949.535 467.465 949.535 467.465C949.535 467.465 943.692 469.954 943.422 470.116C943.151 470.279 937.687 470.928 937.038 472.28C936.227 474.12 932.385 474.282 932.385 474.282L929.951 479.367L928.22 484.723L929.031 491.378Z" fill="#040744"/>
<path d="M916.642 470.549C919.996 471.901 923.837 472.497 927.841 471.306C936.659 468.601 940.176 469.629 941.366 470.333C942.069 470.711 942.935 470.874 943.692 470.657C944.558 470.387 945.369 469.575 945.099 467.573C945.099 467.573 945.423 459.188 938.228 454.373C929.247 457.024 921.619 462.867 916.642 470.549Z" fill="#040744"/>
<path d="M935.631 469.954C935.361 469.629 935.469 469.088 935.794 468.872C937.254 467.898 941.041 465.734 945.64 465.464C946.073 465.464 946.451 465.788 946.451 466.221C946.451 466.6 946.127 466.924 945.748 466.978C941.582 467.195 938.012 469.251 936.659 470.116C936.335 470.387 935.848 470.279 935.631 469.954Z" fill="#FEB546"/>
<path d="M1048 464.977H998.279C997.414 464.977 996.71 464.273 996.71 463.408V459.675C996.71 458.809 997.414 458.106 998.279 458.106H1048C1048.86 458.106 1049.57 458.809 1049.57 459.675V463.408C1049.51 464.273 1048.81 464.977 1048 464.977Z" fill="white"/>
<path d="M1030.85 483.046H998.279C997.414 483.046 996.71 482.343 996.71 481.477V477.744C996.71 476.879 997.414 476.176 998.279 476.176H1030.85C1031.71 476.176 1032.42 476.879 1032.42 477.744V481.477C1032.42 482.343 1031.71 483.046 1030.85 483.046Z" fill="white"/>
<path d="M1080.89 483.046H1040.1C1039.23 483.046 1038.53 482.343 1038.53 481.477V477.744C1038.53 476.879 1039.23 476.176 1040.1 476.176H1080.89C1081.76 476.176 1082.46 476.879 1082.46 477.744V481.477C1082.4 482.343 1081.76 483.046 1080.89 483.046Z" fill="white"/>
<path d="M1146.19 464.977H1059.84C1058.98 464.977 1058.28 464.273 1058.28 463.408V459.675C1058.28 458.809 1058.98 458.106 1059.84 458.106H1146.19C1147.05 458.106 1147.76 458.809 1147.76 459.675V463.408C1147.76 464.273 1147.05 464.977 1146.19 464.977Z" fill="white"/>
<path d="M1146.19 518.428H998.279C997.414 518.428 996.71 517.724 996.71 516.859V513.126C996.71 512.26 997.414 511.557 998.279 511.557H1146.19C1147.05 511.557 1147.76 512.26 1147.76 513.126V516.859C1147.76 517.724 1147.05 518.428 1146.19 518.428Z" fill="white"/>
<path d="M1073.21 501.116H998.279C997.414 501.116 996.71 500.412 996.71 499.547V495.814C996.71 494.948 997.414 494.245 998.279 494.245H1073.21C1074.07 494.245 1074.78 494.948 1074.78 495.814V499.547C1074.72 500.412 1074.07 501.116 1073.21 501.116Z" fill="white"/>
<path d="M1146.19 501.116H1087.71C1086.84 501.116 1086.14 500.412 1086.14 499.547V495.814C1086.14 494.948 1086.84 494.245 1087.71 494.245H1146.19C1147.05 494.245 1147.76 494.948 1147.76 495.814V499.547C1147.76 500.412 1147.05 501.116 1146.19 501.116Z" fill="white"/>
<path d="M1147.69 228.886L1152.93 268.379L1124.91 247.875L1039.05 204L1105.44 210.059C1105.44 210.059 1139.25 218.282 1141.09 219.96C1142.93 221.691 1147.69 228.886 1147.69 228.886Z" fill="#DFEBFD"/>
<path d="M1177.06 205.082L1039 204.054L1147.69 228.886L1177.06 205.082Z" fill="#FFF7F8"/>
<path d="M1103.27 268.65L1139.46 239.598L1039 204.054L1103.27 268.65Z" fill="white"/>
<path d="M1317.77 462.493L1315.93 459.788C1318.74 457.894 1321.29 455.568 1323.5 452.917L1325.99 455.027C1323.56 457.949 1320.8 460.437 1317.77 462.493Z" fill="#988E7E"/>
<path d="M1336 435.984L1332.92 435.01C1334.81 429.005 1336.06 422.188 1336.6 414.777L1339.84 415.047C1339.25 422.729 1338 429.762 1336 435.984ZM1339.73 393.786L1336.49 394.11C1336.38 393.245 1336.27 392.325 1336.16 391.46C1335.79 388.43 1335.19 385.4 1334.43 382.371C1333.73 379.612 1332.92 376.798 1331.94 374.093L1335.03 373.011C1336.06 375.825 1336.92 378.746 1337.62 381.613C1338.38 384.751 1338.98 387.889 1339.41 391.027C1339.52 391.892 1339.68 392.866 1339.73 393.786ZM1323.07 355.483C1319.61 349.803 1315.44 344.23 1310.74 338.874L1313.17 336.71C1317.99 342.174 1322.26 347.909 1325.83 353.752L1323.07 355.483ZM1221.53 347.801C1219.31 348.342 1213.68 348.45 1210.06 346.286C1207.35 344.663 1205.08 342.12 1203.56 338.983L1206.49 337.576C1207.78 340.227 1209.57 342.229 1211.73 343.527C1214.33 345.096 1218.98 345.096 1220.77 344.663C1220.99 344.609 1221.09 344.555 1221.09 344.555C1221.26 344.447 1221.42 344.338 1221.58 344.23L1223.37 346.935C1223.2 347.043 1222.99 347.206 1222.82 347.314C1222.45 347.53 1222.01 347.693 1221.53 347.801ZM1295.91 324.376C1290.72 319.993 1285.15 315.774 1279.25 311.933L1281.04 309.228C1287.04 313.123 1292.72 317.397 1298.02 321.887L1295.91 324.376ZM1235.05 328.704L1231.86 328.054C1232.29 326.053 1232.51 323.997 1232.51 321.995C1232.51 319.128 1232.13 316.206 1231.43 313.231C1231.05 311.608 1230.51 309.985 1229.91 308.362L1232.94 307.226C1233.59 308.957 1234.13 310.742 1234.56 312.474C1235.38 315.665 1235.75 318.911 1235.75 321.995C1235.75 324.213 1235.48 326.485 1235.05 328.704ZM1206.43 318.695L1203.51 317.288C1206.43 311.121 1212 305.711 1218.71 302.465L1219.15 302.249L1220.55 305.17L1220.12 305.386C1214.06 308.308 1209.08 313.177 1206.43 318.695ZM1260.37 304.088C1254.47 302.303 1249.82 301.167 1247.55 301.113C1244.95 301.004 1242.57 300.95 1240.3 301.058L1240.19 297.812C1242.57 297.758 1245.01 297.758 1247.71 297.921C1251.17 298.083 1257.72 299.976 1261.34 301.058L1260.37 304.088ZM1219.36 290.942C1214.93 285.748 1209.73 281.258 1203.94 277.525L1205.67 274.766C1211.73 278.661 1217.14 283.368 1221.8 288.832L1219.36 290.942Z" fill="#988E7E"/>
<path d="M1185.28 269.194C1181.87 268.274 1178.41 267.625 1175 267.246L1175.32 264C1178.9 264.379 1182.52 265.028 1186.14 266.056L1185.28 269.194Z" fill="#988E7E"/>
<path opacity="0.3" d="M1169.34 730.554H917.995C909.339 730.554 902.251 737.587 902.251 746.297V850.007C902.251 858.663 909.284 865.75 917.995 865.75H1115.89C1123.9 876.948 1138.4 896.965 1139.7 896.965C1140.89 896.965 1138.56 878.084 1136.94 865.75H1169.34C1178 865.75 1185.09 858.717 1185.09 850.007V746.297C1185.09 737.587 1178.05 730.554 1169.34 730.554Z" fill="white"/>
<path d="M1158.96 703.612H907.607C898.951 703.612 891.864 710.645 891.864 719.355V823.065C891.864 831.721 898.897 838.808 907.607 838.808H1105.51C1113.51 850.006 1128.01 870.023 1129.31 870.023C1130.5 870.023 1128.17 851.143 1126.55 838.808H1158.96C1167.61 838.808 1174.7 831.775 1174.7 823.065V719.355C1174.7 710.645 1167.67 703.612 1158.96 703.612Z" fill="#CC494C"/>
<path d="M961.089 807.598C981.183 799.189 990.664 776.104 982.265 756.039C973.867 735.973 950.77 726.524 930.677 734.934C910.583 743.343 901.102 766.427 909.501 786.493C917.899 806.559 940.996 816.008 961.089 807.598Z" fill="white"/>
<path d="M925.352 772.265C925.352 772.265 921.457 756.251 930.762 750.246C940.067 744.241 950.022 742.888 956.784 746.351C966.198 751.166 970.093 764.096 967.063 771.291L942.069 765.015L925.352 772.265Z" fill="#040744"/>
<path d="M952.078 791.092H940.5V802.669H952.078V791.092Z" fill="#FFC0BB"/>
<path d="M952.078 798.016V791.092H940.5V796.988C942.989 798.287 946.668 799.044 952.078 798.016Z" fill="#F99893"/>
<path d="M970.309 770.371C969.119 769.776 967.712 769.884 966.414 770.534C966.847 759.118 957.542 749.543 945.802 749.976C934.062 749.597 924.757 759.173 925.19 770.534C923.946 769.884 922.539 769.776 921.295 770.371C918.968 771.507 918.265 774.807 919.672 777.675C921.078 780.542 924.162 782.003 926.434 780.867C926.759 780.704 927.029 780.488 927.3 780.272C928.652 789.685 936.497 796.772 945.748 796.61C954.999 796.718 962.843 789.685 964.196 780.272C964.466 780.488 964.737 780.704 965.062 780.867C967.388 782.003 970.417 780.596 971.824 777.675C973.339 774.807 972.636 771.507 970.309 770.371Z" fill="#FFC0BB"/>
<path d="M953.43 783.842C952.943 786.115 950.292 787.9 947.1 788.008C943.909 788.116 941.149 786.493 940.5 784.221L953.43 783.842Z" fill="white"/>
<path d="M925.244 770.534C925.244 770.534 940.392 765.935 946.992 758.307C946.992 758.307 945.099 767.558 943.692 769.019C944.125 769.289 958.84 762.148 960.788 755.602C962.735 749.056 945.748 746.621 945.748 746.621C945.748 746.621 939.905 749.11 939.634 749.272C939.364 749.435 933.9 750.084 933.251 751.436C932.439 753.276 928.598 753.438 928.598 753.438L926.164 758.523L924.432 763.879L925.244 770.534Z" fill="#040744"/>
<path d="M912.855 749.705C916.209 751.058 920.05 751.653 924.054 750.463C932.872 747.758 936.389 748.785 937.579 749.489C938.282 749.867 939.148 750.03 939.905 749.813C940.771 749.543 941.582 748.731 941.312 746.73C941.312 746.73 941.636 738.344 934.441 733.529C925.46 736.18 917.832 742.023 912.855 749.705Z" fill="#040744"/>
<path d="M931.844 749.11C931.574 748.785 931.682 748.244 932.007 748.028C933.467 747.054 937.254 744.89 941.853 744.62C942.286 744.62 942.664 744.944 942.664 745.377C942.664 745.756 942.34 746.08 941.961 746.134C937.795 746.351 934.225 748.407 932.872 749.272C932.548 749.543 932.061 749.435 931.844 749.11Z" fill="#FEB546"/>
<path d="M1044.21 744.133H994.492C993.626 744.133 992.923 743.43 992.923 742.564V738.831C992.923 737.966 993.626 737.262 994.492 737.262H1044.21C1045.08 737.262 1045.78 737.966 1045.78 738.831V742.564C1045.72 743.43 1045.02 744.133 1044.21 744.133Z" fill="white"/>
<path d="M1027.06 762.202H994.492C993.626 762.202 992.923 761.499 992.923 760.633V756.9C992.923 756.035 993.626 755.332 994.492 755.332H1027.06C1027.93 755.332 1028.63 756.035 1028.63 756.9V760.633C1028.63 761.499 1027.93 762.202 1027.06 762.202Z" fill="white"/>
<path d="M1077.1 762.202H1036.31C1035.45 762.202 1034.74 761.499 1034.74 760.633V756.9C1034.74 756.035 1035.45 755.332 1036.31 755.332H1077.1C1077.97 755.332 1078.67 756.035 1078.67 756.9V760.633C1078.62 761.499 1077.97 762.202 1077.1 762.202Z" fill="white"/>
<path d="M1142.4 744.133H1056.06C1055.19 744.133 1054.49 743.43 1054.49 742.564V738.831C1054.49 737.966 1055.19 737.262 1056.06 737.262H1142.4C1143.27 737.262 1143.97 737.966 1143.97 738.831V742.564C1143.97 743.43 1143.27 744.133 1142.4 744.133Z" fill="white"/>
<path d="M1142.4 797.584H994.492C993.626 797.584 992.923 796.88 992.923 796.015V792.282C992.923 791.416 993.626 790.713 994.492 790.713H1142.4C1143.27 790.713 1143.97 791.416 1143.97 792.282V796.015C1143.97 796.88 1143.27 797.584 1142.4 797.584Z" fill="white"/>
<path d="M1069.42 780.272H994.492C993.626 780.272 992.923 779.568 992.923 778.703V774.97C992.923 774.104 993.626 773.401 994.492 773.401H1069.42C1070.29 773.401 1070.99 774.104 1070.99 774.97V778.703C1070.94 779.568 1070.29 780.272 1069.42 780.272Z" fill="white"/>
<path d="M1142.4 780.272H1083.92C1083.05 780.272 1082.35 779.568 1082.35 778.703V774.97C1082.35 774.104 1083.05 773.401 1083.92 773.401H1142.4C1143.27 773.401 1143.97 774.104 1143.97 774.97V778.703C1143.97 779.568 1143.27 780.272 1142.4 780.272Z" fill="white"/>
</g>
<defs>
<clipPath id="clip0">
<rect width="1440" height="1024" fill="white"/>
</clipPath>
</defs>
</svg>
