<svg id="Layer_1" data-name="Layer 1" xmlns="http://www.w3.org/2000/svg" viewBox="0 0 498.67 257.74"><defs><style>.cls-1{fill:#ffcec9;}.cls-2{fill:#e8acb5;}.cls-3{fill:#e29893;}.cls-21,.cls-4{fill:#fff;}.cls-4{opacity:0.38;}.cls-18,.cls-19,.cls-24,.cls-4,.cls-6,.cls-9{isolation:isolate;}.cls-5{fill:#463360;}.cls-13,.cls-24,.cls-6,.cls-9{fill:#523d6b;}.cls-6{opacity:0.34;}.cls-7{fill:#fcd6b1;}.cls-8{fill:#68411d;}.cls-9{opacity:0.43;}.cls-10{fill:#392a51;}.cls-11{fill:#cc4e4e;}.cls-12{fill:none;stroke:#e59e6e;stroke-linecap:round;stroke-linejoin:round;stroke-width:0.64px;}.cls-14,.cls-18{fill:#f85c55;}.cls-15{fill:#fcc2a2;}.cls-16{fill:#f9b485;}.cls-17{fill:#f7b228;}.cls-18{opacity:0.28;}.cls-19{fill:#ffcba1;opacity:0.49;}.cls-20{fill:#333;}.cls-22{fill:#eaeaea;}.cls-23{fill:#e59e6e;}.cls-24{font-size:19.24px;font-family:ArialMT, Arial;}.cls-25{fill:#e1e2ff;}.cls-26{fill:#ffb68a;}.cls-27{fill:#8c5c07;}.cls-28{fill:#efd4d3;}</style></defs><title>hello</title><g id="OBJECTS"><path class="cls-1" d="M427.61,14.76c-21.29-8-46.93-2.86-63.29,12.82-19,18.09-26.44,48.42-50.25,59.52-17.74,8.24-38.8,2.86-57.8,7.1-27.59,6.18-47.5,33.3-49.9,61.35-1.84,21.63,5.49,43,17.62,60.77,11.33,16.48,31.71,25.64,50.36,31,27.7,8,58.83,10.53,87.68,10.42,21.29,0,42.81-1.61,63.64-6.18C443,247.78,461,243.2,475.23,232.1c6.64-5.27,14.19-12.94,16.82-21.18,3.44-10.3,2.18-23.23-.57-33.53-4.58-16.94-14.08-32-21.06-48.08-4.46-10.18-4.46-20-5.84-30.78-1.49-11.79-2.17-23.7-4.35-35.49-1.94-10.53-5-20.94-10.41-30.21C444.09,23.35,437.91,18.65,427.61,14.76Z" transform="translate(0 0)"/><path class="cls-2" d="M325.4,169.17a83.09,83.09,0,0,1,10.42,33.65,79.82,79.82,0,0,1-.46,18.08c-.46,3.43,1.6,10.07-3.89,10.19-2.52,0-4.69-1.38-7.1-2.18-5.26-1.71-11-.11-16.48.46a103.26,103.26,0,0,1-13.28.23c-5.49-.23-11.1-.34-16.48-1.72s-10.64-3.89-14.08-8.24c-2.52-3-4-7-3-10.76a12.26,12.26,0,0,1,3.2-5.15,22,22,0,0,1,7.44-5c4.12-1.72,9.62-2.75,10.87-7.1,1-3.55-1.48-7.1-3.43-10.3s-2.86-8.13.34-10.07c2.52-1.61,6-.23,8.47-1.61,3.44-1.94,3-7,2.06-10.76-1.14-4.8-1.94-9.61-2.63-14.53-.46-3.89-.23-8.93,3.44-10.53s7.66,2.06,9.72,5.61a40.47,40.47,0,0,1,4.5,11.32c.68,3,1,6.18,2.75,8.81,3.09,4.81,6.29,2,10.41,2.86C321.4,163,323.7,166.19,325.4,169.17Z" transform="translate(0 0)"/><path class="cls-1" d="M286.94,86.18c-10.87,1.26-22,.12-32.85,1.84-8.12,1.25-18.54,4.12-23.8,11-.35.35.23.92.68.69,3.78-2.52,7.21-5.15,11.56-7a50.82,50.82,0,0,1,13-3.32c10.42-1.49,21.06-1.26,31.59-2.52.23,0,.23-.8-.23-.69Z" transform="translate(0 0)"/><path class="cls-3" d="M331.35,231.43c-.45-1.14-9.5-3.2-11-3.78-3.67-1.37-7.22-2.86-10.76-4.35-6.3-2.74-13.74-5.26-19.23-9.5-1-.8-2.06-1.71-2.06-3a2.9,2.9,0,0,1,2.17-2.52,6,6,0,0,1,3.44.23,2.42,2.42,0,0,0,1.25.11,1.36,1.36,0,0,0,.58-1.71,3.17,3.17,0,0,0-1.38-1.38c-4.23-3-9.38-4.46-13.85-7.09-4-2.29-8.47-6.3-9.27-11.22-.8-4.69,3.89-7.78,4.24-12.48.23-3.54-1.83-6.75-3.55-10s-3-7.1-1.14-10.19c2.28-3.66,8.12-3.43,11.56-.8s5.26,6.87,7.32,10.76c1.6,3.09,4.35,7.9,7.1,10A4.47,4.47,0,0,0,302,175a23.84,23.84,0,0,0,2.29-2.63c3-3.2,8.7-1.6,11.1,2.06s2.06,8.36,1.15,12.59a12.83,12.83,0,0,0-.57,5.5c.34,1.83,2.06,3.54,3.89,3.31,1.14-.22,2.06-1.14,3.32-1.14a3.15,3.15,0,0,1,3,2.4,10,10,0,0,1,.12,4.12C325.4,212.09,327.58,221.47,331.35,231.43Z" transform="translate(0 0)"/><path class="cls-4" d="M276.3,158.29a125.2,125.2,0,0,0,14.19,30.1c.12.35.12.81.23,1.15a.41.41,0,0,0,.69.23c.34.46.68,1,1,1.49-5.27-3.67-10.42-7.1-14.77-12-.23-.35-.68.11-.46.46,4.58,5.38,10,10.87,16.6,13.5h0c7.1,10,15.91,20,26.33,26.67.45.23,1-.34.68-.69-4.69-4.35-9.38-8.58-13.85-13A60.72,60.72,0,0,0,301,179.64a.26.26,0,0,0-.35-.08.27.27,0,0,0-.11.2,148.4,148.4,0,0,1,5.5,25.52,114.34,114.34,0,0,1-11.22-13.16c-1.14-1.61-2.29-3.21-3.32-4.92-.57-7.33-3.43-14.65-7.09-20.95a.25.25,0,0,0-.36-.06.24.24,0,0,0-.1.29,72.3,72.3,0,0,1,5.76,18A133.71,133.71,0,0,1,277,158.06C276.87,157.76,276.18,158,276.3,158.29Z" transform="translate(0 0)"/><path class="cls-5" d="M394.53,154.4a27.9,27.9,0,0,0,5.61-6.07,21.85,21.85,0,0,0,3.44-9c.34-2.52.68-6.64-.69-8.93a10.37,10.37,0,0,0-2.4-2.63,9.73,9.73,0,0,1-2.87-5c-.34-2.06.35-4.12.81-6.07a25.74,25.74,0,0,0,.57-10.19,16.51,16.51,0,0,0-4.47-9c-1.25-1.14-2.63-2.17-4-3.2a32.06,32.06,0,0,1-9-12A54,54,0,0,1,379,75.1a11.92,11.92,0,0,0-.69-2.75c-.57-.92-2.06-1.72-2.86-2.52a49.13,49.13,0,0,1-5.76-7.34c-3.21-4.58-6.41-9.38-9.73-13.85-1.72-2.29-1.49-4.12-4.58-4.69a30,30,0,0,0-13.16.46,39.68,39.68,0,0,0-18.89,12.13,32.66,32.66,0,0,0-7.09,14.22C315.1,75.68,314.18,81,313.5,86a8,8,0,0,1-3.32,4.35c-3.09,1.72-7.33.46-10.3,2.29-4.58,2.86-3.21,10.42-3.78,14.88-.34,2.29-.8,4.92-2.86,6.41-3.21,2.06-7.67,0-11.22,1-8.24,2.41-7,14.42-3.2,20A16.24,16.24,0,0,0,289,141.55c4.81,1.26,8.7,4.47,9.73,9.5.58,3.21.12,6.53,0,9.84-.23,4.7.58,8.47,3.67,12C309,180.56,319.79,184,330,183.31a24.07,24.07,0,0,0,11.22-3.21c2.4-1.48,4.23-3.66,6.18-5.6,3.32-3.44,7-6.64,11.44-8.25s9.5-1.48,14.08-2.74c2.41-.69,3.66-1.26,6.18-1.26a18,18,0,0,0,6.53-1.26,35,35,0,0,0,5.49-3.43A30.15,30.15,0,0,1,394.53,154.4Z" transform="translate(0 0)"/><path class="cls-6" d="M327.7,183.24c-9.5.12-19.23-3.32-25.52-10.53-3.09-3.54-3.89-7.32-3.67-12,.12-3.32.58-6.64,0-9.85-.91-5-4.8-8.35-9.72-9.5-4.24-1-7.79-3-10.19-6.64-3.78-5.49-5-17.51,3.2-20,3.55-1,8,1,11.22-1,2.06-1.37,2.63-4,2.86-6.41.57-4.46-.8-12,3.78-14.88,2.63-1.6,6.18-1.14,9.16-1.71-.35,1.26-2.64,1.71-3.78,2.4a8.19,8.19,0,0,0-3.32,3.55,14.52,14.52,0,0,0-.57,3.2c-.23,3.09-.58,6.18,0,9.16.45,2.4.91,5.84-.69,7.9s-4.81,2.52-6.87,4.23c-2.86,2.41-3,6.87-1.83,10.53a20.88,20.88,0,0,0,4.81,8.47c2.29,2.29,3.66,4.93,6.52,6.64a25.43,25.43,0,0,1,6,3.89,11.69,11.69,0,0,1,2.29,3.55,38.91,38.91,0,0,1,2.17,9.52,28.17,28.17,0,0,0,1.14,6.18,23,23,0,0,0,3.67,6.29A32.14,32.14,0,0,0,327.7,183.24Z" transform="translate(0 0)"/><path class="cls-6" d="M403.58,139.29a23.28,23.28,0,0,1-3.32,9,25.91,25.91,0,0,1-5.61,6.07,43.88,43.88,0,0,1-3.66,2.86c-.35.23-.81.57-1.15.8a22.44,22.44,0,0,0,2.52-7.55c.34-2.52.8-6.75-.57-8.93a10.23,10.23,0,0,0-2.41-2.63,9.78,9.78,0,0,1-2.86-5c-.34-2.06.35-4.12.8-6.06a25.74,25.74,0,0,0,.58-10.19,17,17,0,0,0-4.47-9c-1.26-1.15-2.63-2.18-4-3.21a31.93,31.93,0,0,1-9.05-12,52.58,52.58,0,0,1-2.51-7.21,11.72,11.72,0,0,0-.69-2.74c-.57-.92-2.06-1.72-2.86-2.52a49.17,49.17,0,0,1-5.73-7.21c-3.2-4.58-6.41-9.39-9.72-13.85-1.72-2.29-3.67-4.58-2.29-7.44a11.08,11.08,0,0,1,8.92-6.18c4.12-.35,4.93,2.63,7,5.49,2.51,3.55,4.92,7.1,7.44,10.76a43.06,43.06,0,0,0,5.76,7.15,29.79,29.79,0,0,1,2.86,2.52,9.66,9.66,0,0,1,.69,2.75,31.17,31.17,0,0,0,2.52,7.21,31.24,31.24,0,0,0,9,12,49.16,49.16,0,0,1,4,3.2,16.51,16.51,0,0,1,4.47,9,25.38,25.38,0,0,1-.58,10.19c-.45,2.06-1.14,4.12-.8,6.07a9.73,9.73,0,0,0,2.87,5c.8.92,1.71,1.72,2.4,2.63C404.26,132.65,403.92,136.76,403.58,139.29Z" transform="translate(0 0)"/><path class="cls-7" d="M353.56,141c-7.1-1.49-9.5-11.1-10.19-17.17-.34-3-.69-5.84-1-8.81-.46-4.12-.91-8.24-1.14-12.36-.23-4.93,1.6-14.31,8.58-12.82S359.65,101,360,107c.23,3.66.57,7.33,1,11,.34,3.44.8,6.76,1.26,10.19C362.83,133.11,360.31,142.38,353.56,141Z" transform="translate(0 0)"/><path class="cls-7" d="M361,118c-1,.69-2.18,1.26-3.32,2a9.31,9.31,0,0,1-3.32,1.37,8.13,8.13,0,0,1-4.81-1.37,43.51,43.51,0,0,1-7.21-4.81c-.46-4.12-.91-8.24-1.14-12.36-.23-4.92,1.6-14.31,8.58-12.82s9.84,11.1,10.19,17.17C360.2,110.68,360.54,114.34,361,118Z" transform="translate(0 0)"/><path class="cls-7" d="M328.26,84c0,7.32,1.83,15,6.3,20.94a43,43,0,0,0,13.85,11.45,8.13,8.13,0,0,0,4.81,1.37,8.47,8.47,0,0,0,3.31-1.37c4.24-2.4,8.59-5,11.56-8.93,2.87-3.66,4.13-8.35,4.93-12.93,1.37-7.9,2.51-18-3-24.61-4.23-5.15-11.67-7.67-18.2-7.67C340.7,62.38,328.26,69.36,328.26,84Z" transform="translate(0 0)"/><path class="cls-8" d="M341.88,83.21c2.64-.69,4.58-.8,7.1.46.23.11.57-.23.34-.46-1.94-1.72-5.6-2.06-7.67-.35C341.54,83.09,341.65,83.32,341.88,83.21Z" transform="translate(0 0)"/><path class="cls-7" d="M335,91.33c.57,3.67-1.38,6.87-4.24,7.33s-5.61-2.18-6.18-5.84S326,86,328.84,85.5,334.56,87.67,335,91.33Z" transform="translate(0 0)"/><path class="cls-9" d="M357.79,76.23A40.74,40.74,0,0,1,353.9,80a30.62,30.62,0,0,1-10.3,5.84c-3.78,1.14-9.27,1.83-12.93.57-2.86-1-2.06-3.77-2.64-6.29-.22-1.15-.45-2.29-.57-3.55a29.6,29.6,0,0,1-.23-7.1,15.68,15.68,0,0,1,.69-3.32c2.63-8.12,10.3-18.42,20-17.51,3.43.34,7.1,2.86,10.19,4.24,2.06.91,4.35,2.06,5.49,4.12a8.16,8.16,0,0,1,.8,4.35C364.2,66.84,361.46,72,357.79,76.23Z" transform="translate(0 0)"/><path class="cls-5" d="M355.7,76.11a39.66,39.66,0,0,1-3.89,3.78,30.79,30.79,0,0,1-10.3,5.84c-3.78,1.14-9.27,1.83-12.93.57-2.86-1-2.06-3.78-2.64-6.3-.22-1.14-.45-2.29-.57-3.55a29.53,29.53,0,0,1-.23-7.09,15.68,15.68,0,0,1,.69-3.32c2.63-8.13,10.3-18.43,20-17.51,3.43.34,7.1,2.86,10.19,4.23,2.06.92,4.35,2.06,5.49,4.12a8.16,8.16,0,0,1,.8,4.35C362.14,66.76,359.51,71.88,355.7,76.11Z" transform="translate(0 0)"/><path class="cls-9" d="M359.28,69.7c4.47,3.09,9.27,5.84,12.13,10.3a15.9,15.9,0,0,1,2.29,9.39c-.23,3.2-1.48,6.29-1.37,9.5a11.94,11.94,0,0,0,9,10.87.68.68,0,0,0,.69-1,9.75,9.75,0,0,1-1.95-7.09c.35-3.21,2.29-6.19,2.41-9.39.11-2.4-1.15-4.35-2.29-6.18a14.59,14.59,0,0,1-1.72-9.27A66.32,66.32,0,0,0,380,70.3a20.48,20.48,0,0,0-4-14,30.42,30.42,0,0,0-14.08-11c-2.86-1-7.66-2.63-10.76-1.83-2.74.69-3.09,6.75-3.09,9.39a16.61,16.61,0,0,0,2.75,9.27,30.29,30.29,0,0,0,7.33,7A1.81,1.81,0,0,1,359.28,69.7Z" transform="translate(0 0)"/><path class="cls-5" d="M361,69.93c4.46,3.09,9.27,5.84,12.13,10.3a15.9,15.9,0,0,1,2.29,9.39c-.23,3.2-1.49,6.29-1.37,9.5a11.94,11.94,0,0,0,9,10.87.68.68,0,0,0,.69-1,9.78,9.78,0,0,1-1.95-7.1c.34-3.2,2.29-6.18,2.4-9.38.12-2.4-1.14-4.35-2.29-6.18a14.61,14.61,0,0,1-1.71-9.27c.45-2.18,1.26-4.35,1.49-6.53a20.48,20.48,0,0,0-4-14,30.49,30.49,0,0,0-14.08-11A29.43,29.43,0,0,0,348.84,44c-1.95.35-4.35.35-4.81,2.75-.34,1.83,1,3.89,1.83,5.38a45.35,45.35,0,0,0,14.08,17A4.19,4.19,0,0,1,361,69.93Z" transform="translate(0 0)"/><path class="cls-10" d="M327.81,85.5c8.12,3.09,18.77-3.44,23.23-10.08.23-.34-.23-.68-.57-.45-3.09,2.63-5.72,5.49-9.39,7.44-4.23,2.29-8.47,2.51-13.16,2.63C327.58,85,327.58,85.38,327.81,85.5Z" transform="translate(0 0)"/><path class="cls-10" d="M328.49,85.5c7.1-.58,14.77-6.41,18.54-12.36.35-.46-.45-1-.8-.58a45,45,0,0,1-8.35,7.79c-3,2.06-6.3,3.09-9.5,4.69a.25.25,0,0,0,.11.46Z" transform="translate(0 0)"/><path class="cls-10" d="M328.15,85.27c1.6,0,2.63-1.72,3.55-2.86a70.56,70.56,0,0,0,5-7.9.58.58,0,0,0-1-.57c-1.48,2.06-2.74,4.23-4.23,6.41a21.22,21.22,0,0,1-2,2.86A22.72,22.72,0,0,0,327.81,85c0,.11.11.23.34.23Z" transform="translate(0 0)"/><path class="cls-10" d="M371.3,111c1,5.38,5.95,8.59,10.64,10.65,6.53,2.86,13.17,4.8,15.8,12.13.23.57,1.14.46,1-.12-.57-5.38-5.61-8.7-10.07-10.64-6.41-2.86-14.08-4.81-16.48-12.13-.23-.8-1-.46-.92.11Z" transform="translate(0 0)"/><path class="cls-10" d="M367.18,114.68c-.57,3.44,2.63,6.3,5.38,7.79.46.23,1.14-.46.69-.8-2.41-2.06-4.81-3.44-5.27-6.87-.11-.35-.8-.57-.8-.12Z" transform="translate(0 0)"/><path class="cls-10" d="M320.48,92.59A10.36,10.36,0,0,1,312,98.2a7.26,7.26,0,0,0-4.92,2.18c-4,4.69-.23,10.87-.57,16.14-.12,2.06-.92,4.23-2.64,5.26-1.37.8-3,.8-4.46,1.14-1.83.46-3.55,1.26-4.35,3.1-2.4,4.92,2.4,10.18,4.12,14.53.23.57,1.26.57,1.15-.11-.58-4.92-9.16-13.85-.46-16.14,2.06-.57,4.12-.57,5.84-2.18A7.85,7.85,0,0,0,308,117.2c.69-5.38-4.8-15.45,3-17.62,2.4-.69,4.58-.58,6.75-2.18a9.12,9.12,0,0,0,3.55-4.69c.12-.23-.57-.57-.8-.12Z" transform="translate(0 0)"/><path class="cls-2" d="M382.52,145.24c1.94-2.4,3.89-4.92,6.52-6.41s6.3-1.83,8.7.12a12.91,12.91,0,0,1,2.86,4A132.08,132.08,0,0,1,407,157.83c2.18,6,4.69,12.94,10.76,15.11,4.46,1.61,9.84,0,14.19,2.06,5,2.41,6.64,8.93,6.76,14.65s-.46,11.68,2.51,16.6,10,8.7,9.27,14.65c-.45,4-4.57,6.64-8.35,8-15.68,5.27-32.85-2.17-49.33-.8-5.84.46-12.71,1.83-16.94-2.29-1.95-1.94-2.86-4.69-3.66-7.44a99.3,99.3,0,0,1,7.21-69.24" transform="translate(0 0)"/><path class="cls-3" d="M381,173.63c.34-4.35.8-8.7,2.4-12.71s4.69-7.66,8.82-8.92c3.77-1.15,8.24-.12,11.67-2.18,3.09-1.71,4.58-5.38,6.18-8.58s4.24-6.53,7.78-6.64c4.35-.11,7.44,4.81,7.21,9.16s-2.74,8.24-4.8,12c-2.64,5-4.24,11.45-2,16.83,1.72,4,6.53,8.7,4.35,13.39-1,2.29-3.55,3.43-5.84,4.35s-4.92,1.49-6.63,3.21-2.41,5-.58,6.63c2.29,2,6.3.35,8.36,2.64a4.45,4.45,0,0,1,1,3.09c-.23,5.15-5.38,8.35-10,10.64-6.07,3.09-16.14,6.07-20.72,11-6.63-16.25-8.35-36.51-8.92-53.91" transform="translate(0 0)"/><path class="cls-4" d="M418,141.35a127.21,127.21,0,0,0-16.94,28.73l-.8.8a.41.41,0,0,0,0,.57.39.39,0,0,0,.25.12l-.69,1.72c.11-6.41,0-12.59,1.6-19a.3.3,0,0,0-.22-.35.3.3,0,0,0-.35.23c-1.83,6.75-3.32,14.31-1.83,21.29h0c-4.24,11.56-7.56,24.38-7.21,36.74,0,.57.91.69.91.12.92-6.3,1.72-12.59,3-18.77a62.23,62.23,0,0,0,18.66-19.92c.11-.23-.23-.46-.35-.23a155.28,155.28,0,0,1-18,18.89,109.37,109.37,0,0,1,4.58-16.6c.69-1.83,1.37-3.66,2.18-5.49A49.19,49.19,0,0,0,416,152.57c.12-.23-.23-.46-.46-.23a77.77,77.77,0,0,1-11.67,14.88,138.09,138.09,0,0,1,14.79-25.41C418.8,141.47,418.34,141,418,141.35Z" transform="translate(0 0)"/><path class="cls-11" d="M397.7,225.94a121.27,121.27,0,0,1,16.37-46.7,131.56,131.56,0,0,1,15.33-20.15c6-6.41,12.48-13,20.72-16.48a.59.59,0,0,0-.34-1.14h0c-8,2.4-14.54,9.27-20.15,15.22a122.63,122.63,0,0,0-16,20.72c-9,14.53-15.45,31.24-16.83,48.41-.11.57.92.69.92.12Z" transform="translate(0 0)"/><path class="cls-11" d="M439.4,147.76c3-1,6-2.06,8.93-3,2.52-.81,5.26-1.95,6.41-4.24.11-.23.23-.46.11-.69a.76.76,0,0,0-.8-.45c-2.63-.35-5.38.91-7.44,2.63s-5.38,4-7.09,6.07" transform="translate(0 0)"/><path class="cls-11" d="M430.25,156.12a22.49,22.49,0,0,1,2.06-13.36c.34-.58.68-1.26,1.37-1.38s1.37.8,1.6,1.49a8.5,8.5,0,0,1-.46,4.12,63.3,63.3,0,0,1-3.54,8.81" transform="translate(0 0)"/><path class="cls-11" d="M421.89,166A24.06,24.06,0,0,1,424,151.88c.34-.57.8-1.26,1.49-1.37s1.49.8,1.71,1.6a9,9,0,0,1-.45,4.24,63.39,63.39,0,0,1-3.78,9.15" transform="translate(0 0)"/><path class="cls-11" d="M413.42,178.76a23.76,23.76,0,0,1-2.52-14,2.61,2.61,0,0,1,.92-1.83c.8-.35,1.6.22,2.06,1a7.68,7.68,0,0,1,.91,4.23,55.87,55.87,0,0,1-.57,9.84" transform="translate(0 0)"/><path class="cls-11" d="M436.2,151.54a19.41,19.41,0,0,0,11.9-1.72c.57-.23,1.15-.68,1.15-1.26a1.69,1.69,0,0,0-1.38-1.37,8.12,8.12,0,0,0-3.66.34,49.23,49.23,0,0,0-7.78,3.09" transform="translate(0 0)"/><path class="cls-11" d="M427.61,160.81a23.85,23.85,0,0,0,14.31-2.05c.69-.34,1.37-.8,1.37-1.49a2.18,2.18,0,0,0-1.6-1.71,8.08,8.08,0,0,0-4.35.45,54.47,54.47,0,0,0-9.27,3.78" transform="translate(0 0)"/><path class="cls-11" d="M419,171.91a23.85,23.85,0,0,0,14.31-2.06c.68-.34,1.37-.8,1.37-1.49a2.2,2.2,0,0,0-1.6-1.71,8.08,8.08,0,0,0-4.35.46,54.43,54.43,0,0,0-9.27,3.77" transform="translate(0 0)"/><path class="cls-11" d="M410.79,184.5a23.83,23.83,0,0,0,14.3-2.06c.69-.34,1.38-.8,1.38-1.49a2.2,2.2,0,0,0-1.6-1.71,8.08,8.08,0,0,0-4.35.46,54.43,54.43,0,0,0-9.27,3.77" transform="translate(0 0)"/><path class="cls-11" d="M315.33,226.28c-10.07-6.41-19.46-13.39-27.81-22.09s-17.06-19.11-20.38-30.9c-.23-.58-1.26-.58-1.14.11.8,6.07,4.35,11.45,7.78,16.37a139.35,139.35,0,0,0,11.68,14.42c8.47,8.93,18.31,17.28,29.18,22.89.8.46,1.26-.46.69-.8Z" transform="translate(0 0)"/><path class="cls-11" d="M270.81,184.85l-1.72-9.27c-.46-2.64-1.15-5.5-3.32-7a1.71,1.71,0,0,0-.69-.23c-.34.12-.46.46-.57.81a10.46,10.46,0,0,0,1.49,7.78c1.37,2.29,3.2,5.84,5,7.9" transform="translate(0 0)"/><path class="cls-11" d="M277.79,195a22.4,22.4,0,0,1-13-3.89,2.07,2.07,0,0,1-1.15-1.6c0-.8.92-1.26,1.72-1.37a8.22,8.22,0,0,1,4,1,51.73,51.73,0,0,1,8.12,4.8" transform="translate(0 0)"/><path class="cls-11" d="M286.26,204.88a23.3,23.3,0,0,1-13.62-4.12,2.08,2.08,0,0,1-1.15-1.61c0-.8,1-1.37,1.83-1.37a7.61,7.61,0,0,1,4.12,1.14,55.76,55.76,0,0,1,8.59,5" transform="translate(0 0)"/><path class="cls-11" d="M297.82,215a24.05,24.05,0,0,1-14.2.46c-.68-.23-1.37-.46-1.6-1.15s.46-1.6,1.26-1.94a7.56,7.56,0,0,1,4.24-.23,56.71,56.71,0,0,1,9.73,2.06" transform="translate(0 0)"/><path class="cls-11" d="M274.12,188.62a19.52,19.52,0,0,0,0-12,2.07,2.07,0,0,0-1-1.38c-.68-.23-1.37.46-1.6,1.15a6.6,6.6,0,0,0-.11,3.66,64.93,64.93,0,0,0,1.94,8.13" transform="translate(0 0)"/><path class="cls-11" d="M282,198.35a23.82,23.82,0,0,0,0-14.42c-.23-.69-.57-1.49-1.26-1.6a2.16,2.16,0,0,0-1.94,1.37,8,8,0,0,0-.12,4.35,47.92,47.92,0,0,0,2.41,9.73" transform="translate(0 0)"/><path class="cls-11" d="M291.75,208.42a23.82,23.82,0,0,0,0-14.42c-.23-.68-.57-1.48-1.26-1.6a2.14,2.14,0,0,0-1.94,1.37,7.85,7.85,0,0,0-.12,4.35,47.92,47.92,0,0,0,2.41,9.73" transform="translate(0 0)"/><path class="cls-11" d="M303.08,218.38a23.82,23.82,0,0,0,0-14.42c-.23-.69-.57-1.49-1.26-1.6a2.16,2.16,0,0,0-1.94,1.37,8,8,0,0,0-.12,4.35,47.92,47.92,0,0,0,2.41,9.73" transform="translate(0 0)"/><path class="cls-11" d="M405,234c9.39-7.78,17.28-17.86,23.46-28.39A132.1,132.1,0,0,0,436.88,189c2.29-5.5,4.81-11.56,4.24-17.63-.12-.8-1.15-.8-1.15,0-.68,12.25-7,24.15-13.27,34.45a141,141,0,0,1-22.55,27.47C403.81,233.72,404.49,234.41,405,234Z" transform="translate(0 0)"/><path class="cls-11" d="M439.06,183.24c-.12-3.09-.23-6.29-.23-9.38-.11-2.63,0-5.61,1.72-7.56a1.08,1.08,0,0,1,.57-.34c.34,0,.57.34.69.57a10.49,10.49,0,0,1,.22,7.9c-.91,2.52-1.94,6.41-3.2,8.81" transform="translate(0 0)"/><path class="cls-11" d="M434.37,194.76a23.14,23.14,0,0,0,11.9-6.52,2.16,2.16,0,0,0,.8-1.72c-.23-.8-1.14-1-2.06-.91a9.22,9.22,0,0,0-3.66,1.83,59.85,59.85,0,0,0-7,6.41" transform="translate(0 0)"/><path class="cls-11" d="M428.07,206.14a24.23,24.23,0,0,0,12.48-6.87,2.33,2.33,0,0,0,.8-1.83,1.84,1.84,0,0,0-2.06-1,7.92,7.92,0,0,0-3.78,1.94,57.85,57.85,0,0,0-7.32,6.76" transform="translate(0 0)"/><path class="cls-11" d="M419,218.5A24.49,24.49,0,0,0,433,216c.57-.34,1.26-.8,1.38-1.49s-.81-1.49-1.72-1.6a7.83,7.83,0,0,0-4.24.69,64,64,0,0,0-9,4" transform="translate(0 0)"/><path class="cls-11" d="M436.54,187.59a20.13,20.13,0,0,1-2.63-11.83,1.71,1.71,0,0,1,.68-1.48c.69-.35,1.38.23,1.84.8a7.47,7.47,0,0,1,.91,3.55,49.56,49.56,0,0,1-.23,8.35" transform="translate(0 0)"/><path class="cls-11" d="M430.93,198.92a24.08,24.08,0,0,1-3.09-14.07c.12-.69.23-1.49.92-1.83a1.91,1.91,0,0,1,2.17.91,7.76,7.76,0,0,1,1,4.24,58.39,58.39,0,0,1-.23,10.07" transform="translate(0 0)"/><path class="cls-11" d="M423.61,210.83a23.92,23.92,0,0,1-3.09-14.07c.11-.69.23-1.49.91-1.83a1.93,1.93,0,0,1,2.18.91,7.76,7.76,0,0,1,1,4.24,59.41,59.41,0,0,1-.23,10.07" transform="translate(0 0)"/><path class="cls-11" d="M414.56,223a24.12,24.12,0,0,1-3.09-14.08c.12-.68.23-1.49.92-1.83a1.91,1.91,0,0,1,2.17.92,7.7,7.7,0,0,1,1,4.23,59.41,59.41,0,0,1-.22,10.07" transform="translate(0 0)"/><path class="cls-10" d="M325.63,103.7h-.57c-.12,0-.12.22,0,.22h.57C325.75,103.81,325.75,103.7,325.63,103.7Z" transform="translate(0 0)"/><path class="cls-12" d="M357,86.41a47.76,47.76,0,0,0,.12,5.61,10.63,10.63,0,0,0,.34,2.75c.23.57,1.14.8,1.72,1a2.71,2.71,0,0,1,.91.34,1.37,1.37,0,0,1,.69.69.86.86,0,0,1-.23.91,4.78,4.78,0,0,1-.8.69,16.19,16.19,0,0,1-2,1" transform="translate(0 0)"/><path class="cls-13" d="M361.57,103.24a6.24,6.24,0,0,1-1.49,3.55,7.25,7.25,0,0,1-9,2.06,7.42,7.42,0,0,1-1.95-1.38,8.34,8.34,0,0,1-2.86-5.15,28.15,28.15,0,0,0,4.81,1,18.61,18.61,0,0,0,5,.12,11,11,0,0,0,5.38-2.41A18.07,18.07,0,0,1,361.57,103.24Z" transform="translate(0 0)"/><path class="cls-14" d="M360,106.9a7.24,7.24,0,0,1-9,2.06,7.41,7.41,0,0,1-2-1.37,8.1,8.1,0,0,1,11-.69Z" transform="translate(0 0)"/><path class="cls-15" d="M372.44,93.62c0,1.15-2.4,2.18-5.38,2.18s-5.38-.92-5.38-2.18,2.41-2.17,5.38-2.17S372.44,92.36,372.44,93.62Z" transform="translate(0 0)"/><path class="cls-16" d="M382.86,166.76a27.58,27.58,0,0,1-1.49-4.23,8.33,8.33,0,0,1-.11-4.12c.91-3.32,6.29-5,9.27-6,1.37-.34,3.2-.34,4.46-.91a114.06,114.06,0,0,0,5.71,15.83q1.71,3.78,3.77,7.44a70.21,70.21,0,0,0,4.58,6.53A31.56,31.56,0,0,1,414.2,196a43.27,43.27,0,0,1,.12,7.55c-.23,2.29-.81,3.67-2.87,1.72-.8-.8-1.83-1.26-2.63-2.06-2.63-2.52-4.69-5.72-7.32-8.24a49.59,49.59,0,0,1-6-5.95,28.24,28.24,0,0,1-2.4-3.89c-2.4-4.13-4.69-8.25-7.1-12.37A60.26,60.26,0,0,1,382.86,166.76Z" transform="translate(0 0)"/><path class="cls-17" d="M393.62,230.52c-.12.11-.23.11-.23.22a8.56,8.56,0,0,1-2.86.69,268.32,268.32,0,0,1-33.31.69c-6-.23-11.9-.69-18-1.15-2.75-.23-6.52-.23-9-1.48s-.57-4.7,0-7a111.63,111.63,0,0,0,3.2-18.42c.92-13-3.66-23.81-9.73-35-2.63-4.92-5.37-9.73-7.21-15a32.92,32.92,0,0,1-1.26-15.91c.81-4.7,6.76-5.5,10.65-6.76a121.22,121.22,0,0,0,12.7-5.26l4.81-2.4s1.72,2.17,2.29,2.86a14.56,14.56,0,0,0,7.1,3.89,9.89,9.89,0,0,0,4.8.23c3.09-.92,3.9-4.35,3.9-7.21,0,.34,4.92,3.55,5.38,4,2.4,2,4.8,4,7.21,6a26.48,26.48,0,0,1,3.66,3.44,24.67,24.67,0,0,1,3,5.38c.69,1.49,1.38,3,1.95,4.35s1.15,2.63,1.83,3.89h0a4.7,4.7,0,0,1,.46,1.14c.23.46.46,1,.69,1.49a4.93,4.93,0,0,1,.34.92c2.75,6.29,4.58,12.59,2.29,19.46-.8,2.51-2.18,4.92-3.09,7.32A34.89,34.89,0,0,0,384,199.28a63.5,63.5,0,0,0,1.84,6.18c1.71,4.69,3.43,9.27,5,14C392.25,221.7,396.25,228.57,393.62,230.52Z" transform="translate(0 0)"/><path class="cls-17" d="M370,126.36c3.43,1,6.87,2.17,10.42,3.09a14.42,14.42,0,0,1,3.66,1.37c3,1.72,4.69,5,6.18,8.13s2.86,6.07,4.35,9.16a25.55,25.55,0,0,1,2.52,7.55c-2.86,1.26-5.73,2.17-8.47,3.66s-5.27,3.89-8.13,5.27c1.72-1.38-10.76-24.38-11.79-26.56-2.17-4.23-5.26-4.12-6.52-9-.8-3.2.11-1.83-.58-5.61,0,.23,1.26.69,1.49.8a9.38,9.38,0,0,0,1.61.58C366.49,125.21,368.21,125.76,370,126.36Z" transform="translate(0 0)"/><path class="cls-18" d="M388.58,173.52c-.8,2.51-2.17,4.92-3.09,7.32a34.8,34.8,0,0,0-1.14,18.43c-9,2.63-18.66,3.43-28,3.89-3.67.23-7.44.34-10.88-1.14-4.23-1.84-7.09-6.07-9.27-10.19a72.47,72.47,0,0,1-6.64-19.23,80.92,80.92,0,0,1-1.26-10.3c-.11-1.72.12-3.44,0-5s-.68-3.09-.11-4.58c.46-1.14,1.72-2.17,3-1.71a4.49,4.49,0,0,1,1.49,1.14c5.73,6.75,8,16.83,15.91,21.75,8.24,5.15,18.89,4.23,28,1.14a12.23,12.23,0,0,0,5.84-3.32c2.41-2.63,2.75-6.52,2.63-10.07-.11-4.69-.68-10.76-2.28-15.11,0,0,0,.12.11.12a15.05,15.05,0,0,1,1.83,3.89h0a8.08,8.08,0,0,0,.8,2.06,2,2,0,0,0,.46.57c.11.35.23.57.34.92C389,160.35,390.87,166.65,388.58,173.52Z" transform="translate(0 0)"/><path class="cls-16" d="M413.42,206.36l-.11.12c-.46.57-1.38.46-2.06.69-.92.22-1.84.57-2.75.8a23.1,23.1,0,0,1-5.5.57c-4.57-.12-8.92-2.06-13.27-3.78-2-.8-3.78-1.49-5.73-2.17-4.12-1.49-8.35-2.86-12.59-4-2.06-.57-4.23-1.14-6.41-1.6-3.09-.69-8.24-1.49-11.1-2.75s-3.43-3.32-4.81-6.18a5.27,5.27,0,0,1-.45-3.2c.23-1-1.38-2-.23-2.06.57,0,0-.23.57,0,11.9,4.57,27.36,4.46,40.63,5.49,2.29.11,4.47.34,6.87.69.23,0,.57.11.92.11,3.09.46,6.29-1.14,9.27-.11,3.2,1.14,5.49,4.23,6.64,7.44a15.43,15.43,0,0,1,.57,5.15v2.74A4.83,4.83,0,0,1,413.42,206.36Z" transform="translate(0 0)"/><path class="cls-19" d="M397.51,191.14a7.51,7.51,0,0,1-1.49,1.15,49.81,49.81,0,0,0-5.49,5.38,44.38,44.38,0,0,0-5.27,7,.11.11,0,0,1-.11.11c-4.12-1.49-8.36-2.86-12.59-4,1.6-2.52,4.35-4,7-5.38a50.75,50.75,0,0,1,11.1-4.92,17.73,17.73,0,0,1,3.67-.69c.8-.12,2.63-.46,3.2.34C397.85,190.45,397.7,190.76,397.51,191.14Z" transform="translate(0 0)"/><path class="cls-7" d="M315,158.29c5.15,11,9.15,22.44,14.65,33.31a82.55,82.55,0,0,0,9.61,15.22c1.49,1.83,3.09,4.47,5,5.61,2.63,1.49,6.64.8,9.5,0a82.61,82.61,0,0,0,18.88-8c2.18-1.15,4.58-2,6.76-3.21,2.4-1.37,4.92-2.86,7.32-4.23,2.63-1.49,5.15-2.86,7.78-4.35,1.95-1,4.58-3.32,6.87-3.55a1.2,1.2,0,0,0,.92-.23c1-.8-.23-2.29-.92-2.86-.46-.34-1-.69-1.49-1a9.68,9.68,0,0,0-2.4-1.37c-2.86-1-5,.34-7.78,1.14-6.07,1.83-12.48,2.63-18.66,3.78a126.47,126.47,0,0,1-19.69,2.17,2.34,2.34,0,0,1-2.94-2.17c-1.15-4.35-15-35-19.92-40.06A68.92,68.92,0,0,0,316,158.33" transform="translate(0 0)"/><path class="cls-17" d="M347.49,131.05c3.32,2.06,9.27,5,13.28,3,2.17-1.15,2.86-3.55,3.43-5.73a.31.31,0,1,0-.53-.32.42.42,0,0,0,0,.1c-.8,1.83-1.26,4.12-3.09,5.15-3.78,2.06-9.27-1.26-12.82-2.52-.34-.23-.46.11-.23.34Z" transform="translate(0 0)"/><path class="cls-17" d="M339.14,165.27a1.13,1.13,0,0,0-.12-.57c-2.74-5.49-5.49-10.87-8.24-16.37a68,68,0,0,0-6.08-10.57c-1.6-2.06-3.77-4.23-6.52-3.43s-4.81,3.66-5.49,6.64a25.13,25.13,0,0,0,.11,9.27c.46,3.55,2.18,22.66,5.72,23.12,1.15.12,3.9-2.06,4.93-2.52,1.71-.8,3.54-1.6,5.26-2.29s3.66-1.26,5.49-1.83c.92-.23,1.84-.46,2.64-.68C337.42,165.85,338.91,166,339.14,165.27Z" transform="translate(0 0)"/><path class="cls-20" d="M341.77,124.18c1.72,18.09,9.5,37.2,21.29,51.17.23.34.8-.12.57-.46-5.38-7.78-10.41-15.68-14-24.5a123.19,123.19,0,0,1-7.33-26.32c-.11-.23-.57-.23-.57.11Z" transform="translate(0 0)"/><path class="cls-20" d="M363.29,124.18a254.14,254.14,0,0,1,1.83,26.44c0,4.47-.23,8.82-.57,13.28s-1.15,8.81-1.38,13.16c0,.23.46.35.46.12,2.29-8.36,2.4-17.86,2.29-26.44a127.55,127.55,0,0,0-2.4-26.44c0-.35-.35-.35-.23-.12Z" transform="translate(0 0)"/><path class="cls-21" d="M374.05,186.33l-17.86,1.61a1.51,1.51,0,0,1-1.6-1.38l-.92-11a1.53,1.53,0,0,1,1.38-1.61l17.85-1.6a1.51,1.51,0,0,1,1.6,1.37l.92,11A1.61,1.61,0,0,1,374.05,186.33Z" transform="translate(0 0)"/><path class="cls-22" d="M372.1,184.76,357.7,186a1.5,1.5,0,0,1-1.6-1.37l-.69-7.56a1.52,1.52,0,0,1,1.37-1.6l14.42-1.26a1.52,1.52,0,0,1,1.61,1.38l.68,7.55a1.41,1.41,0,0,1-1.19,1.61Z" transform="translate(0 0)"/><path class="cls-23" d="M329.06,90a3,3,0,0,0-1.48,2.75,2.56,2.56,0,0,0,1.83,2.4c.11,0,.34-.11.23-.34-.46-.69-1.15-1.15-1.26-2.06a3.44,3.44,0,0,1,.91-2.52c.12-.11-.11-.34-.23-.23Z" transform="translate(0 0)"/><path class="cls-8" d="M360.2,92.14c.45-1.61.91-5.73,3.43-5.27,2.29.46,2.29,3.66,2.75,5.38.11.57.91.46,1-.11.34-2.52-1.15-6.64-4.24-6.53-2.86.12-4,4.24-3.43,6.53,0,.22.34.22.46,0Z" transform="translate(0 0)"/><path class="cls-8" d="M342.11,92.82c.46-1.6.92-5.72,3.44-5.26,2.29.46,2.29,3.66,2.74,5.38.12.57.92.45,1-.12.35-2.52-1.14-6.64-4.23-6.52-2.86.11-4,4.23-3.44,6.52.12.35.46.35.46,0Z" transform="translate(0 0)"/><path class="cls-15" d="M347.49,95.23c0,1.14-2.4,2.17-5.38,2.17s-5.38-.92-5.38-2.17,2.41-2.18,5.38-2.18S347.49,94.08,347.49,95.23Z" transform="translate(0 0)"/><path class="cls-10" d="M324.26,96.37c.23,5.84-7,7.21-9.85,11.1-2.29,3.09-2.06,7-1.83,10.65.35,5.61-.23,10.64-4.92,14.42-3.2,2.63-6.18,4-5.49,8.81a.68.68,0,0,0,1.26,0c.22-1.6.22-3.32,1.37-4.69a12,12,0,0,1,3.09-2.29,15.94,15.94,0,0,0,4.23-4.58c2.29-3.77,2.18-7.78,1.84-12a20,20,0,0,1,.11-6.41c.69-3,2.75-4.69,5.15-6.29,3.21-2.18,6.41-4.46,5.72-8.7,0-.57-.68-.46-.68,0Z" transform="translate(0 0)"/><path class="cls-10" d="M330,108.62a16.91,16.91,0,0,1-3.09,6.06,14,14,0,0,0-2.75,3.67c-1.49,3.2,0,7.09-.68,10.41a.49.49,0,0,0,.91.35c2.52-3.32-.57-7.9,1.83-11.56,1.95-2.87,4.7-5.16,4.47-9,0-.23-.58-.34-.69.12Z" transform="translate(0 0)"/><path class="cls-8" d="M360.31,83c2.75-.57,4.58-.57,7.1.8.23.11.57-.23.34-.46-1.83-1.71-5.49-2.29-7.55-.68C360,82.75,360.08,83,360.31,83Z" transform="translate(0 0)"/><path class="cls-16" d="M339.14,174.09a.9.9,0,0,0-.58-.23.76.76,0,0,0-.68.8,2,2,0,0,0,.46,1.14A19.38,19.38,0,0,0,341.2,179a17.21,17.21,0,0,1-5.84-.69,4.12,4.12,0,0,0-1.15-.23.86.86,0,0,0-.8.8,1.6,1.6,0,0,0,.35.81,4.61,4.61,0,0,0,1.83,1.25,4.11,4.11,0,0,0-1.15-.22c-.34,0-.8.34-.8.68a1.58,1.58,0,0,0,.8,1.15,15.27,15.27,0,0,0,5,2.17,2.77,2.77,0,0,0-1.37-.11c-.46.11-.92.46-.92.91a1.81,1.81,0,0,0,1,1.38c1.49.8,3.21.8,4.81,1.14,2.4.57,4.46,1.83,6.75,2.63a.69.69,0,0,0,.8,0,.57.57,0,0,0,.23-.45,2.65,2.65,0,0,0-.46-2.29,5.23,5.23,0,0,1-.68-.8,7,7,0,0,1-.35-2.18C348.75,179.35,343.26,177.06,339.14,174.09Z" transform="translate(0 0)"/><path class="cls-21" d="M438.49,65.81a26.66,26.66,0,0,0-12.94-8.13,39.92,39.92,0,0,0-6.41-1.26c-11.1-1.37-23.92,1.84-28.38,13.28a18.83,18.83,0,0,0-1.38,7.67A8.07,8.07,0,0,0,388,78.74c-.34.23-.57.58-.92.81-.11.11-.68.45-.68.8s.57.34.8.45a15.84,15.84,0,0,1,1.49.58,10.09,10.09,0,0,0,1.71.57,13.14,13.14,0,0,0,5,6c7.21,4.81,16.6,5.49,25.18,4,5.61-.92,11.1-2.75,15.57-6.41a17,17,0,0,0,5.61-8.7A14,14,0,0,0,438.49,65.81Z" transform="translate(0 0)"/><text class="cls-24" transform="translate(402.06 82.21)">Hello!</text><path class="cls-25" d="M468.47,77a151.47,151.47,0,0,0,9,49.9c6,15.91,15.68,30,20,46.47.23.8,1.26.46,1.14-.34-1.14-7.9-4.69-15.23-8.35-22.21-3.9-7.67-7.9-15.33-11.11-23.35A152.41,152.41,0,0,1,468.79,77c.11-.23-.35-.23-.35,0Z" transform="translate(0 0)"/><path class="cls-21" d="M395,45.67a4.92,4.92,0,1,1-4.93-4.91h0A5,5,0,0,1,395,45.67Z" transform="translate(0 0)"/><path class="cls-26" d="M272.52,138.83a4.88,4.88,0,1,1,0-.08Z" transform="translate(0 0)"/><circle class="cls-21" cx="242.77" cy="172.6" r="4.92"/><path class="cls-21" d="M276.41,106.1a3.89,3.89,0,1,1-3.89-3.89A3.89,3.89,0,0,1,276.41,106.1Z" transform="translate(0 0)"/><circle class="cls-26" cx="419.95" cy="112.05" r="4.92"/><path class="cls-21" d="M460,195.83a4.92,4.92,0,1,1-4.92-4.92A5,5,0,0,1,460,195.83Z" transform="translate(0 0)"/><path class="cls-21" d="M410.22,103a2.41,2.41,0,1,1-2.42-2.4h0A2.5,2.5,0,0,1,410.22,103Z" transform="translate(0 0)"/><path class="cls-17" d="M255.47,195.26a2.41,2.41,0,1,1-2.42-2.4h0A2.43,2.43,0,0,1,255.47,195.26Z" transform="translate(0 0)"/><path class="cls-21" d="M455.88,172.49a2.4,2.4,0,1,1-2.4-2.41A2.5,2.5,0,0,1,455.88,172.49Z" transform="translate(0 0)"/><path class="cls-17" d="M412.85,126.36a2.41,2.41,0,1,1-2.41-2.41A2.51,2.51,0,0,1,412.85,126.36Z" transform="translate(0 0)"/><path class="cls-26" d="M482.55,187.59a2.4,2.4,0,1,1-2.4-2.4h0A2.42,2.42,0,0,1,482.55,187.59Z" transform="translate(0 0)"/><path class="cls-21" d="M247.34,126.13a2.41,2.41,0,1,1-2.42-2.4h0A2.42,2.42,0,0,1,247.34,126.13Z" transform="translate(0 0)"/><circle class="cls-17" cx="445.93" cy="164.13" r="2.4"/><path class="cls-27" d="M386,158.64,374.85,160a1,1,0,0,1-1.23-.7,1.53,1.53,0,0,1,0-.3l-.34-2.86a1,1,0,0,1,.7-1.23l.3,0,11.1-1.37a1,1,0,0,1,1.23.7,1.53,1.53,0,0,1,0,.3l.34,2.86A1.2,1.2,0,0,1,386,158.64Z" transform="translate(0 0)"/><path class="cls-27" d="M430.7,233.76H295.87a3.37,3.37,0,0,1-3.43-3.31v-.12h0a3.38,3.38,0,0,1,3.32-3.44H430.7a3.38,3.38,0,0,1,3.44,3.32v.12h0A3.46,3.46,0,0,1,430.7,233.76Z" transform="translate(0 0)"/><path class="cls-27" d="M385,229.49c13.51.34,27.13,1.14,40.52.68.23,0,.23-.23,0-.23-13.39-1-27.12-.68-40.52-.57-.11-.11-.11.12,0,.12Z" transform="translate(0 0)"/><path class="cls-27" d="M302.4,232c13.5.35,27.12,1.15,40.51.69.23,0,.23-.23,0-.23-13.39-1-27.12-.69-40.51-.57-.12-.12-.12.11,0,.11Z" transform="translate(0 0)"/><path class="cls-27" d="M307.2,230.4c13.51.34,27.13,1.15,40.52.69.23,0,.23-.23,0-.23-13.39-1-27.13-.69-40.52-.57-.11-.12-.11.11,0,.11Z" transform="translate(0 0)"/><path class="cls-27" d="M355.5,230.86c13.51.34,27.13,1.14,40.52.69.23,0,.23-.23,0-.23-13.39-1-27.12-.69-40.52-.58C355.39,230.74,355.39,230.86,355.5,230.86Z" transform="translate(0 0)"/><path class="cls-27" d="M333.87,229c13.51.34,27.13,1.14,40.52.68.23,0,.23-.22,0-.22-13.39-1-27.13-.69-40.52-.58-.11-.11-.11.12,0,.12Z" transform="translate(0 0)"/><path class="cls-21" d="M218.7,152.34a72,72,0,0,0,.34,34.22c2.63,10.76,7.78,22.55,15.91,30.22.34.34,1-.11.69-.57-3.09-4.47-6.41-8.7-8.93-13.39a74.82,74.82,0,0,1-7.21-50.14C219.61,152,218.81,151.77,218.7,152.34Z" transform="translate(0 0)"/><path class="cls-25" d="M465.84,59.29a53.49,53.49,0,0,1,.8,8.47.35.35,0,0,0,.4.29.36.36,0,0,0,.29-.29,24.27,24.27,0,0,0-1.14-8.59c.11-.34-.35-.23-.35.12Z" transform="translate(0 0)"/><circle class="cls-28" cx="27.47" cy="79.09" r="18.54"/><path class="cls-1" d="M309.38,67.18a4.16,4.16,0,0,0-.57.92,10.67,10.67,0,0,0-.92,2.63c-1.14,4.12-2.63,7.21-7.1,8.13-3.09.69-6.86-.12-8.35-3.09a8.56,8.56,0,0,1-.23-5.84,18.64,18.64,0,0,1,6.29-9,29,29,0,0,1,10-4.92,4.5,4.5,0,0,1,1.2-.25,1.83,1.83,0,0,1,1.26.57,5,5,0,0,1,1.85,4.43,8.55,8.55,0,0,1-1.94,4.58C310.52,65.81,310,66.5,309.38,67.18Z" transform="translate(0 0)"/><path class="cls-28" d="M28.5,29.41A29.27,29.27,0,0,1,0,58.76V0A29.37,29.37,0,0,1,28.5,29.41Z" transform="translate(0 0)"/><path class="cls-28" d="M52,48.3c0,3.48-2.32,6.3-5.18,6.3s-5.17-2.82-5.17-6.3S44,42,46.82,42h0C49.65,42,52,44.7,52,48.13Z" transform="translate(0 0)"/><path class="cls-1" d="M315.7,48.07c-.8,1.6-2.17,2.52-2.17,4.23,0,2.29,2.29,4.7,4.58,3.55a4.44,4.44,0,0,0,1.83-1.71,5.71,5.71,0,0,0,.8-4.7c-.69-2.06-4-4-5.27-1.37" transform="translate(0 0)"/></g></svg>